STARTFONT 2.2
FONT -dse-7x13-medium-r-normal--13-130-72-72-c-70-iso10646-1
SIZE 13 72 72
FONTBOUNDINGBOX 7 13 0 -2
STARTPROPERTIES 17
FOUNDRY "dse"
FAMILY_NAME "7x13"
WEIGHT_NAME "medium"
SLANT "r"
SETWIDTH_NAME Normal
ADD_STYLE_NAME 
PIXEL_SIZE 13
POINT_SIZE 130
RESOLUTION_X 72
RESOLUTION_Y 72
SPACING "m"
AVERAGE_WIDTH 70
CHARSET_REGISTRY ISO10646
CHARSET_ENCODING 1
FONT_ASCENT 11
FONT_DESCENT 2
DEFAULT_CHAR 32
ENDPROPERTIES
CHARS 489
STARTCHAR space
ENCODING 32
BBX 7 13 0 0
SWIDTH 538 0
DWIDTH 7 0
BITMAP
00
00
00
00
00
00
00
00
00
00
00
00
00
ENDCHAR
STARTCHAR exclam
ENCODING 33
BBX 7 13 0 0
SWIDTH 538 0
DWIDTH 7 0
BITMAP
00
00
10
10
10
10
10
10
00
00
10
00
00
ENDCHAR
STARTCHAR quotedbl
ENCODING 34
BBX 7 13 0 0
SWIDTH 538 0
DWIDTH 7 0
BITMAP
00
00
28
28
28
00
00
00
00
00
00
00
00
ENDCHAR
STARTCHAR numbersign
ENCODING 35
BBX 7 13 0 0
SWIDTH 538 0
DWIDTH 7 0
BITMAP
00
00
28
28
7C
28
28
28
7C
28
28
00
00
ENDCHAR
STARTCHAR dollar
ENCODING 36
BBX 7 13 0 0
SWIDTH 538 0
DWIDTH 7 0
BITMAP
00
00
10
3C
50
50
38
14
14
78
10
00
00
ENDCHAR
STARTCHAR percent
ENCODING 37
BBX 7 13 0 0
SWIDTH 538 0
DWIDTH 7 0
BITMAP
00
00
60
60
04
08
10
20
40
0C
0C
00
00
ENDCHAR
STARTCHAR ampersand
ENCODING 38
BBX 7 13 0 0
SWIDTH 538 0
DWIDTH 7 0
BITMAP
00
00
20
50
50
20
20
54
54
48
34
00
00
ENDCHAR
STARTCHAR quotesingle
ENCODING 39
BBX 7 13 0 0
SWIDTH 538 0
DWIDTH 7 0
BITMAP
00
00
10
10
10
00
00
00
00
00
00
00
00
ENDCHAR
STARTCHAR parenleft
ENCODING 40
BBX 7 13 0 0
SWIDTH 538 0
DWIDTH 7 0
BITMAP
00
08
10
20
20
20
20
20
20
20
10
08
00
ENDCHAR
STARTCHAR parenright
ENCODING 41
BBX 7 13 0 0
SWIDTH 538 0
DWIDTH 7 0
BITMAP
00
20
10
08
08
08
08
08
08
08
10
20
00
ENDCHAR
STARTCHAR asterisk
ENCODING 42
BBX 7 13 0 0
SWIDTH 538 0
DWIDTH 7 0
BITMAP
00
00
00
10
54
38
10
38
54
10
00
00
00
ENDCHAR
STARTCHAR plus
ENCODING 43
BBX 7 13 0 0
SWIDTH 538 0
DWIDTH 7 0
BITMAP
00
00
00
00
10
10
7C
10
10
00
00
00
00
ENDCHAR
STARTCHAR comma
ENCODING 44
BBX 7 13 0 0
SWIDTH 538 0
DWIDTH 7 0
BITMAP
00
00
00
00
00
00
00
00
00
10
10
20
00
ENDCHAR
STARTCHAR hyphen
ENCODING 45
BBX 7 13 0 0
SWIDTH 538 0
DWIDTH 7 0
BITMAP
00
00
00
00
00
00
7C
00
00
00
00
00
00
ENDCHAR
STARTCHAR period
ENCODING 46
BBX 7 13 0 0
SWIDTH 538 0
DWIDTH 7 0
BITMAP
00
00
00
00
00
00
00
00
00
00
10
00
00
ENDCHAR
STARTCHAR slash
ENCODING 47
BBX 7 13 0 0
SWIDTH 538 0
DWIDTH 7 0
BITMAP
00
00
00
04
08
08
10
20
20
40
00
00
00
ENDCHAR
STARTCHAR zero
ENCODING 48
BBX 7 13 0 0
SWIDTH 538 0
DWIDTH 7 0
BITMAP
00
00
38
44
44
4C
54
64
44
44
38
00
00
ENDCHAR
STARTCHAR one
ENCODING 49
BBX 7 13 0 0
SWIDTH 538 0
DWIDTH 7 0
BITMAP
00
00
10
30
10
10
10
10
10
10
38
00
00
ENDCHAR
STARTCHAR two
ENCODING 50
BBX 7 13 0 0
SWIDTH 538 0
DWIDTH 7 0
BITMAP
00
00
38
44
04
04
18
20
40
40
7C
00
00
ENDCHAR
STARTCHAR three
ENCODING 51
BBX 7 13 0 0
SWIDTH 538 0
DWIDTH 7 0
BITMAP
00
00
7C
04
04
08
18
04
04
44
38
00
00
ENDCHAR
STARTCHAR four
ENCODING 52
BBX 7 13 0 0
SWIDTH 538 0
DWIDTH 7 0
BITMAP
00
00
08
18
28
48
48
7C
08
08
08
00
00
ENDCHAR
STARTCHAR five
ENCODING 53
BBX 7 13 0 0
SWIDTH 538 0
DWIDTH 7 0
BITMAP
00
00
7C
40
40
78
04
04
04
44
38
00
00
ENDCHAR
STARTCHAR six
ENCODING 54
BBX 7 13 0 0
SWIDTH 538 0
DWIDTH 7 0
BITMAP
00
00
1C
20
40
40
78
44
44
44
38
00
00
ENDCHAR
STARTCHAR seven
ENCODING 55
BBX 7 13 0 0
SWIDTH 538 0
DWIDTH 7 0
BITMAP
00
00
7C
04
04
08
10
20
20
20
20
00
00
ENDCHAR
STARTCHAR eight
ENCODING 56
BBX 7 13 0 0
SWIDTH 538 0
DWIDTH 7 0
BITMAP
00
00
38
44
44
44
38
44
44
44
38
00
00
ENDCHAR
STARTCHAR nine
ENCODING 57
BBX 7 13 0 0
SWIDTH 538 0
DWIDTH 7 0
BITMAP
00
00
38
44
44
44
3C
04
04
08
70
00
00
ENDCHAR
STARTCHAR colon
ENCODING 58
BBX 7 13 0 0
SWIDTH 538 0
DWIDTH 7 0
BITMAP
00
00
00
00
00
10
00
00
00
10
00
00
00
ENDCHAR
STARTCHAR semicolon
ENCODING 59
BBX 7 13 0 0
SWIDTH 538 0
DWIDTH 7 0
BITMAP
00
00
00
00
00
10
00
00
00
10
10
20
00
ENDCHAR
STARTCHAR less
ENCODING 60
BBX 7 13 0 0
SWIDTH 538 0
DWIDTH 7 0
BITMAP
00
00
00
08
10
20
40
20
10
08
00
00
00
ENDCHAR
STARTCHAR equal
ENCODING 61
BBX 7 13 0 0
SWIDTH 538 0
DWIDTH 7 0
BITMAP
00
00
00
00
00
7C
00
7C
00
00
00
00
00
ENDCHAR
STARTCHAR greater
ENCODING 62
BBX 7 13 0 0
SWIDTH 538 0
DWIDTH 7 0
BITMAP
00
00
00
20
10
08
04
08
10
20
00
00
00
ENDCHAR
STARTCHAR question
ENCODING 63
BBX 7 13 0 0
SWIDTH 538 0
DWIDTH 7 0
BITMAP
00
00
38
44
08
10
10
10
00
00
10
00
00
ENDCHAR
STARTCHAR at
ENCODING 64
BBX 7 13 0 0
SWIDTH 538 0
DWIDTH 7 0
BITMAP
00
00
38
44
44
54
5C
54
58
40
3C
00
00
ENDCHAR
STARTCHAR A
ENCODING 65
BBX 7 13 0 0
SWIDTH 538 0
DWIDTH 7 0
BITMAP
00
00
10
28
44
44
44
7C
44
44
44
00
00
ENDCHAR
STARTCHAR B
ENCODING 66
BBX 7 13 0 0
SWIDTH 538 0
DWIDTH 7 0
BITMAP
00
00
78
44
44
44
78
44
44
44
78
00
00
ENDCHAR
STARTCHAR C
ENCODING 67
BBX 7 13 0 0
SWIDTH 538 0
DWIDTH 7 0
BITMAP
00
00
38
44
40
40
40
40
40
44
38
00
00
ENDCHAR
STARTCHAR D
ENCODING 68
BBX 7 13 0 0
SWIDTH 538 0
DWIDTH 7 0
BITMAP
00
00
78
44
44
44
44
44
44
44
78
00
00
ENDCHAR
STARTCHAR E
ENCODING 69
BBX 7 13 0 0
SWIDTH 538 0
DWIDTH 7 0
BITMAP
00
00
7C
40
40
40
78
40
40
40
7C
00
00
ENDCHAR
STARTCHAR F
ENCODING 70
BBX 7 13 0 0
SWIDTH 538 0
DWIDTH 7 0
BITMAP
00
00
7C
40
40
40
78
40
40
40
40
00
00
ENDCHAR
STARTCHAR G
ENCODING 71
BBX 7 13 0 0
SWIDTH 538 0
DWIDTH 7 0
BITMAP
00
00
3C
40
40
40
40
4C
44
44
3C
00
00
ENDCHAR
STARTCHAR H
ENCODING 72
BBX 7 13 0 0
SWIDTH 538 0
DWIDTH 7 0
BITMAP
00
00
44
44
44
44
7C
44
44
44
44
00
00
ENDCHAR
STARTCHAR I
ENCODING 73
BBX 7 13 0 0
SWIDTH 538 0
DWIDTH 7 0
BITMAP
00
00
38
10
10
10
10
10
10
10
38
00
00
ENDCHAR
STARTCHAR J
ENCODING 74
BBX 7 13 0 0
SWIDTH 538 0
DWIDTH 7 0
BITMAP
00
00
04
04
04
04
04
04
04
44
38
00
00
ENDCHAR
STARTCHAR K
ENCODING 75
BBX 7 13 0 0
SWIDTH 538 0
DWIDTH 7 0
BITMAP
00
00
44
44
48
50
60
50
48
44
44
00
00
ENDCHAR
STARTCHAR L
ENCODING 76
BBX 7 13 0 0
SWIDTH 538 0
DWIDTH 7 0
BITMAP
00
00
40
40
40
40
40
40
40
40
7C
00
00
ENDCHAR
STARTCHAR M
ENCODING 77
BBX 7 13 0 0
SWIDTH 538 0
DWIDTH 7 0
BITMAP
00
00
44
6C
54
54
54
44
44
44
44
00
00
ENDCHAR
STARTCHAR N
ENCODING 78
BBX 7 13 0 0
SWIDTH 538 0
DWIDTH 7 0
BITMAP
00
00
44
64
64
54
54
4C
4C
44
44
00
00
ENDCHAR
STARTCHAR O
ENCODING 79
BBX 7 13 0 0
SWIDTH 538 0
DWIDTH 7 0
BITMAP
00
00
38
44
44
44
44
44
44
44
38
00
00
ENDCHAR
STARTCHAR P
ENCODING 80
BBX 7 13 0 0
SWIDTH 538 0
DWIDTH 7 0
BITMAP
00
00
78
44
44
44
78
40
40
40
40
00
00
ENDCHAR
STARTCHAR Q
ENCODING 81
BBX 7 13 0 0
SWIDTH 538 0
DWIDTH 7 0
BITMAP
00
00
38
44
44
44
44
44
54
48
34
00
00
ENDCHAR
STARTCHAR R
ENCODING 82
BBX 7 13 0 0
SWIDTH 538 0
DWIDTH 7 0
BITMAP
00
00
78
44
44
44
78
50
48
44
44
00
00
ENDCHAR
STARTCHAR S
ENCODING 83
BBX 7 13 0 0
SWIDTH 538 0
DWIDTH 7 0
BITMAP
00
00
38
44
40
40
38
04
04
44
38
00
00
ENDCHAR
STARTCHAR T
ENCODING 84
BBX 7 13 0 0
SWIDTH 538 0
DWIDTH 7 0
BITMAP
00
00
7C
10
10
10
10
10
10
10
10
00
00
ENDCHAR
STARTCHAR U
ENCODING 85
BBX 7 13 0 0
SWIDTH 538 0
DWIDTH 7 0
BITMAP
00
00
44
44
44
44
44
44
44
44
38
00
00
ENDCHAR
STARTCHAR V
ENCODING 86
BBX 7 13 0 0
SWIDTH 538 0
DWIDTH 7 0
BITMAP
00
00
44
44
44
44
44
28
28
10
10
00
00
ENDCHAR
STARTCHAR W
ENCODING 87
BBX 7 13 0 0
SWIDTH 538 0
DWIDTH 7 0
BITMAP
00
00
44
44
44
44
54
54
54
6C
44
00
00
ENDCHAR
STARTCHAR X
ENCODING 88
BBX 7 13 0 0
SWIDTH 538 0
DWIDTH 7 0
BITMAP
00
00
44
44
44
28
10
28
44
44
44
00
00
ENDCHAR
STARTCHAR Y
ENCODING 89
BBX 7 13 0 0
SWIDTH 538 0
DWIDTH 7 0
BITMAP
00
00
44
44
44
28
10
10
10
10
10
00
00
ENDCHAR
STARTCHAR Z
ENCODING 90
BBX 7 13 0 0
SWIDTH 538 0
DWIDTH 7 0
BITMAP
00
00
7C
04
04
08
10
20
40
40
7C
00
00
ENDCHAR
STARTCHAR bracketleft
ENCODING 91
BBX 7 13 0 0
SWIDTH 538 0
DWIDTH 7 0
BITMAP
00
7C
60
60
60
60
60
60
60
60
60
7C
00
ENDCHAR
STARTCHAR backslash
ENCODING 92
BBX 7 13 0 0
SWIDTH 538 0
DWIDTH 7 0
BITMAP
00
00
00
40
20
20
10
08
08
04
00
00
00
ENDCHAR
STARTCHAR bracketright
ENCODING 93
BBX 7 13 0 0
SWIDTH 538 0
DWIDTH 7 0
BITMAP
00
7C
0C
0C
0C
0C
0C
0C
0C
0C
0C
7C
00
ENDCHAR
STARTCHAR asciicircum
ENCODING 94
BBX 7 13 0 0
SWIDTH 538 0
DWIDTH 7 0
BITMAP
00
00
10
28
44
00
00
00
00
00
00
00
00
ENDCHAR
STARTCHAR underscore
ENCODING 95
BBX 7 13 0 0
SWIDTH 538 0
DWIDTH 7 0
BITMAP
00
00
00
00
00
00
00
00
00
00
00
7C
00
ENDCHAR
STARTCHAR grave
ENCODING 96
BBX 7 13 0 0
SWIDTH 538 0
DWIDTH 7 0
BITMAP
00
00
20
10
08
00
00
00
00
00
00
00
00
ENDCHAR
STARTCHAR a
ENCODING 97
BBX 7 13 0 0
SWIDTH 538 0
DWIDTH 7 0
BITMAP
00
00
00
00
38
04
04
3C
44
44
3C
00
00
ENDCHAR
STARTCHAR b
ENCODING 98
BBX 7 13 0 0
SWIDTH 538 0
DWIDTH 7 0
BITMAP
00
00
40
40
78
44
44
44
44
44
78
00
00
ENDCHAR
STARTCHAR c
ENCODING 99
BBX 7 13 0 0
SWIDTH 538 0
DWIDTH 7 0
BITMAP
00
00
00
00
3C
40
40
40
40
40
3C
00
00
ENDCHAR
STARTCHAR d
ENCODING 100
BBX 7 13 0 0
SWIDTH 538 0
DWIDTH 7 0
BITMAP
00
00
04
04
3C
44
44
44
44
44
3C
00
00
ENDCHAR
STARTCHAR e
ENCODING 101
BBX 7 13 0 0
SWIDTH 538 0
DWIDTH 7 0
BITMAP
00
00
00
00
38
44
44
7C
40
40
3C
00
00
ENDCHAR
STARTCHAR f
ENCODING 102
BBX 7 13 0 0
SWIDTH 538 0
DWIDTH 7 0
BITMAP
00
00
18
24
20
78
20
20
20
20
20
00
00
ENDCHAR
STARTCHAR g
ENCODING 103
BBX 7 13 0 0
SWIDTH 538 0
DWIDTH 7 0
BITMAP
00
00
00
00
38
44
44
44
44
3C
04
04
78
ENDCHAR
STARTCHAR h
ENCODING 104
BBX 7 13 0 0
SWIDTH 538 0
DWIDTH 7 0
BITMAP
00
00
40
40
78
44
44
44
44
44
44
00
00
ENDCHAR
STARTCHAR i
ENCODING 105
BBX 7 13 0 0
SWIDTH 538 0
DWIDTH 7 0
BITMAP
00
00
10
00
30
10
10
10
10
10
38
00
00
ENDCHAR
STARTCHAR j
ENCODING 106
BBX 7 13 0 0
SWIDTH 538 0
DWIDTH 7 0
BITMAP
00
00
08
00
18
08
08
08
08
08
08
48
30
ENDCHAR
STARTCHAR k
ENCODING 107
BBX 7 13 0 0
SWIDTH 538 0
DWIDTH 7 0
BITMAP
00
00
40
40
44
48
50
60
50
48
44
00
00
ENDCHAR
STARTCHAR l
ENCODING 108
BBX 7 13 0 0
SWIDTH 538 0
DWIDTH 7 0
BITMAP
00
00
30
10
10
10
10
10
10
10
38
00
00
ENDCHAR
STARTCHAR m
ENCODING 109
BBX 7 13 0 0
SWIDTH 538 0
DWIDTH 7 0
BITMAP
00
00
00
00
6C
54
54
54
54
44
44
00
00
ENDCHAR
STARTCHAR n
ENCODING 110
BBX 7 13 0 0
SWIDTH 538 0
DWIDTH 7 0
BITMAP
00
00
00
00
78
44
44
44
44
44
44
00
00
ENDCHAR
STARTCHAR o
ENCODING 111
BBX 7 13 0 0
SWIDTH 538 0
DWIDTH 7 0
BITMAP
00
00
00
00
38
44
44
44
44
44
38
00
00
ENDCHAR
STARTCHAR p
ENCODING 112
BBX 7 13 0 0
SWIDTH 538 0
DWIDTH 7 0
BITMAP
00
00
00
00
78
44
44
44
44
78
40
40
40
ENDCHAR
STARTCHAR q
ENCODING 113
BBX 7 13 0 0
SWIDTH 538 0
DWIDTH 7 0
BITMAP
00
00
00
00
3C
44
44
44
44
3C
04
04
04
ENDCHAR
STARTCHAR r
ENCODING 114
BBX 7 13 0 0
SWIDTH 538 0
DWIDTH 7 0
BITMAP
00
00
00
00
5C
60
40
40
40
40
40
00
00
ENDCHAR
STARTCHAR s
ENCODING 115
BBX 7 13 0 0
SWIDTH 538 0
DWIDTH 7 0
BITMAP
00
00
00
00
3C
40
40
38
04
04
78
00
00
ENDCHAR
STARTCHAR t
ENCODING 116
BBX 7 13 0 0
SWIDTH 538 0
DWIDTH 7 0
BITMAP
00
00
20
20
78
20
20
20
20
24
18
00
00
ENDCHAR
STARTCHAR u
ENCODING 117
BBX 7 13 0 0
SWIDTH 538 0
DWIDTH 7 0
BITMAP
00
00
00
00
44
44
44
44
44
4C
34
00
00
ENDCHAR
STARTCHAR v
ENCODING 118
BBX 7 13 0 0
SWIDTH 538 0
DWIDTH 7 0
BITMAP
00
00
00
00
44
44
44
44
44
28
10
00
00
ENDCHAR
STARTCHAR w
ENCODING 119
BBX 7 13 0 0
SWIDTH 538 0
DWIDTH 7 0
BITMAP
00
00
00
00
44
44
44
54
54
54
6C
00
00
ENDCHAR
STARTCHAR x
ENCODING 120
BBX 7 13 0 0
SWIDTH 538 0
DWIDTH 7 0
BITMAP
00
00
00
00
44
44
28
10
28
44
44
00
00
ENDCHAR
STARTCHAR y
ENCODING 121
BBX 7 13 0 0
SWIDTH 538 0
DWIDTH 7 0
BITMAP
00
00
00
00
44
44
44
44
44
3C
04
04
38
ENDCHAR
STARTCHAR z
ENCODING 122
BBX 7 13 0 0
SWIDTH 538 0
DWIDTH 7 0
BITMAP
00
00
00
00
7C
04
08
10
20
40
7C
00
00
ENDCHAR
STARTCHAR braceleft
ENCODING 123
BBX 7 13 0 0
SWIDTH 538 0
DWIDTH 7 0
BITMAP
00
0C
10
30
30
20
40
20
30
30
10
0C
00
ENDCHAR
STARTCHAR bar
ENCODING 124
BBX 7 13 0 0
SWIDTH 538 0
DWIDTH 7 0
BITMAP
10
10
10
10
10
10
10
10
10
10
10
10
10
ENDCHAR
STARTCHAR braceright
ENCODING 125
BBX 7 13 0 0
SWIDTH 538 0
DWIDTH 7 0
BITMAP
00
60
10
18
18
08
04
08
18
18
10
60
00
ENDCHAR
STARTCHAR asciitilde
ENCODING 126
BBX 7 13 0 0
SWIDTH 538 0
DWIDTH 7 0
BITMAP
00
00
24
54
48
00
00
00
00
00
00
00
00
ENDCHAR
STARTCHAR uni00A0
ENCODING 160
BBX 7 13 0 0
SWIDTH 538 0
DWIDTH 7 0
BITMAP
00
00
00
00
00
00
00
00
00
00
00
00
00
ENDCHAR
STARTCHAR exclamdown
ENCODING 161
BBX 7 13 0 0
SWIDTH 538 0
DWIDTH 7 0
BITMAP
00
00
10
00
00
10
10
10
10
10
10
00
00
ENDCHAR
STARTCHAR cent
ENCODING 162
BBX 7 13 0 0
SWIDTH 538 0
DWIDTH 7 0
BITMAP
00
00
10
10
3C
50
50
50
3C
10
10
00
00
ENDCHAR
STARTCHAR sterling
ENCODING 163
BBX 7 13 0 0
SWIDTH 538 0
DWIDTH 7 0
BITMAP
00
00
38
40
40
40
E0
40
40
40
BC
00
00
ENDCHAR
STARTCHAR currency
ENCODING 164
BBX 7 13 0 0
SWIDTH 538 0
DWIDTH 7 0
BITMAP
00
00
00
00
44
38
28
38
44
00
00
00
00
ENDCHAR
STARTCHAR yen
ENCODING 165
BBX 7 13 0 0
SWIDTH 538 0
DWIDTH 7 0
BITMAP
00
00
44
44
44
28
10
7C
10
10
10
00
00
ENDCHAR
STARTCHAR brokenbar
ENCODING 166
BBX 7 13 0 0
SWIDTH 538 0
DWIDTH 7 0
BITMAP
00
10
10
10
10
00
00
00
10
10
10
10
00
ENDCHAR
STARTCHAR section
ENCODING 167
BBX 7 13 0 0
SWIDTH 538 0
DWIDTH 7 0
BITMAP
00
3C
40
40
38
44
44
44
38
04
04
78
00
ENDCHAR
STARTCHAR dieresis
ENCODING 168
BBX 7 13 0 0
SWIDTH 538 0
DWIDTH 7 0
BITMAP
00
00
44
00
00
00
00
00
00
00
00
00
00
ENDCHAR
STARTCHAR copyright
ENCODING 169
BBX 7 13 0 0
SWIDTH 538 0
DWIDTH 7 0
BITMAP
00
00
78
84
B4
CC
C4
CC
B4
84
78
00
00
ENDCHAR
STARTCHAR ordfeminine
ENCODING 170
BBX 7 13 0 0
SWIDTH 538 0
DWIDTH 7 0
BITMAP
00
30
08
18
28
18
00
38
00
00
00
00
00
ENDCHAR
STARTCHAR guillemotleft
ENCODING 171
BBX 7 13 0 0
SWIDTH 538 0
DWIDTH 7 0
BITMAP
00
00
00
00
14
28
50
28
14
00
00
00
00
ENDCHAR
STARTCHAR logicalnot
ENCODING 172
BBX 7 13 0 0
SWIDTH 538 0
DWIDTH 7 0
BITMAP
00
00
00
00
00
7C
04
04
00
00
00
00
00
ENDCHAR
STARTCHAR uni00AD
ENCODING 173
BBX 7 13 0 0
SWIDTH 538 0
DWIDTH 7 0
BITMAP
00
00
00
00
00
00
7C
00
00
00
00
00
00
ENDCHAR
STARTCHAR registered
ENCODING 174
BBX 7 13 0 0
SWIDTH 538 0
DWIDTH 7 0
BITMAP
00
00
78
84
F4
CC
F4
D4
CC
84
78
00
00
ENDCHAR
STARTCHAR macron
ENCODING 175
BBX 7 13 0 0
SWIDTH 538 0
DWIDTH 7 0
BITMAP
00
00
7C
00
00
00
00
00
00
00
00
00
00
ENDCHAR
STARTCHAR degree
ENCODING 176
BBX 7 13 0 0
SWIDTH 538 0
DWIDTH 7 0
BITMAP
00
00
10
28
28
10
00
00
00
00
00
00
00
ENDCHAR
STARTCHAR plusminus
ENCODING 177
BBX 7 13 0 0
SWIDTH 538 0
DWIDTH 7 0
BITMAP
00
00
00
10
10
7C
10
10
00
7C
00
00
00
ENDCHAR
STARTCHAR uni00B2
ENCODING 178
BBX 7 13 0 0
SWIDTH 538 0
DWIDTH 7 0
BITMAP
00
30
08
10
20
38
00
00
00
00
00
00
00
ENDCHAR
STARTCHAR uni00B3
ENCODING 179
BBX 7 13 0 0
SWIDTH 538 0
DWIDTH 7 0
BITMAP
00
38
08
10
08
30
00
00
00
00
00
00
00
ENDCHAR
STARTCHAR acute
ENCODING 180
BBX 7 13 0 0
SWIDTH 538 0
DWIDTH 7 0
BITMAP
00
00
08
10
20
00
00
00
00
00
00
00
00
ENDCHAR
STARTCHAR mu
ENCODING 181
BBX 7 13 0 0
SWIDTH 538 0
DWIDTH 7 0
BITMAP
00
00
00
00
44
44
44
44
44
6C
54
40
40
ENDCHAR
STARTCHAR paragraph
ENCODING 182
BBX 7 13 0 0
SWIDTH 538 0
DWIDTH 7 0
BITMAP
00
00
3C
54
54
54
3C
14
14
14
14
00
00
ENDCHAR
STARTCHAR periodcentered
ENCODING 183
BBX 7 13 0 0
SWIDTH 538 0
DWIDTH 7 0
BITMAP
00
00
00
00
00
00
10
00
00
00
00
00
00
ENDCHAR
STARTCHAR cedilla
ENCODING 184
BBX 7 13 0 0
SWIDTH 538 0
DWIDTH 7 0
BITMAP
00
00
00
00
00
00
00
00
00
00
08
08
30
ENDCHAR
STARTCHAR uni00B9
ENCODING 185
BBX 7 13 0 0
SWIDTH 538 0
DWIDTH 7 0
BITMAP
00
10
30
10
10
38
00
00
00
00
00
00
00
ENDCHAR
STARTCHAR ordmasculine
ENCODING 186
BBX 7 13 0 0
SWIDTH 538 0
DWIDTH 7 0
BITMAP
00
10
28
28
28
10
00
38
00
00
00
00
00
ENDCHAR
STARTCHAR guillemotright
ENCODING 187
BBX 7 13 0 0
SWIDTH 538 0
DWIDTH 7 0
BITMAP
00
00
00
00
50
28
14
28
50
00
00
00
00
ENDCHAR
STARTCHAR onequarter
ENCODING 188
BBX 7 13 0 0
SWIDTH 538 0
DWIDTH 7 0
BITMAP
00
20
60
20
74
08
10
20
48
18
3C
08
00
ENDCHAR
STARTCHAR onehalf
ENCODING 189
BBX 7 13 0 0
SWIDTH 538 0
DWIDTH 7 0
BITMAP
00
20
60
20
74
08
10
38
44
08
1C
00
00
ENDCHAR
STARTCHAR threequarters
ENCODING 190
BBX 7 13 0 0
SWIDTH 538 0
DWIDTH 7 0
BITMAP
00
70
20
10
64
08
10
20
48
18
3C
08
00
ENDCHAR
STARTCHAR questiondown
ENCODING 191
BBX 7 13 0 0
SWIDTH 538 0
DWIDTH 7 0
BITMAP
00
00
10
00
00
10
10
10
20
44
38
00
00
ENDCHAR
STARTCHAR Agrave
ENCODING 192
BBX 7 13 0 0
SWIDTH 538 0
DWIDTH 7 0
BITMAP
08
04
10
28
44
44
44
7C
44
44
44
00
00
ENDCHAR
STARTCHAR Aacute
ENCODING 193
BBX 7 13 0 0
SWIDTH 538 0
DWIDTH 7 0
BITMAP
20
40
10
28
44
44
44
7C
44
44
44
00
00
ENDCHAR
STARTCHAR Acircumflex
ENCODING 194
BBX 7 13 0 0
SWIDTH 538 0
DWIDTH 7 0
BITMAP
10
28
00
10
28
44
44
44
7C
44
44
00
00
ENDCHAR
STARTCHAR Atilde
ENCODING 195
BBX 7 13 0 0
SWIDTH 538 0
DWIDTH 7 0
BITMAP
34
58
10
28
44
44
44
7C
44
44
44
00
00
ENDCHAR
STARTCHAR Adieresis
ENCODING 196
BBX 7 13 0 0
SWIDTH 538 0
DWIDTH 7 0
BITMAP
44
00
10
28
44
44
44
7C
44
44
44
00
00
ENDCHAR
STARTCHAR Aring
ENCODING 197
BBX 7 13 0 0
SWIDTH 538 0
DWIDTH 7 0
BITMAP
38
44
38
28
44
44
44
7C
44
44
44
00
00
ENDCHAR
STARTCHAR AE
ENCODING 198
BBX 7 13 0 0
SWIDTH 538 0
DWIDTH 7 0
BITMAP
00
00
3C
50
50
50
7C
50
50
50
5C
00
00
ENDCHAR
STARTCHAR Ccedilla
ENCODING 199
BBX 7 13 0 0
SWIDTH 538 0
DWIDTH 7 0
BITMAP
00
00
38
44
40
40
40
40
40
44
38
08
30
ENDCHAR
STARTCHAR Egrave
ENCODING 200
BBX 7 13 0 0
SWIDTH 538 0
DWIDTH 7 0
BITMAP
20
10
7C
40
40
40
78
40
40
40
7C
00
00
ENDCHAR
STARTCHAR Eacute
ENCODING 201
BBX 7 13 0 0
SWIDTH 538 0
DWIDTH 7 0
BITMAP
08
10
7C
40
40
40
78
40
40
40
7C
00
00
ENDCHAR
STARTCHAR Ecircumflex
ENCODING 202
BBX 7 13 0 0
SWIDTH 538 0
DWIDTH 7 0
BITMAP
10
28
00
7C
40
40
78
40
40
40
7C
00
00
ENDCHAR
STARTCHAR Edieresis
ENCODING 203
BBX 7 13 0 0
SWIDTH 538 0
DWIDTH 7 0
BITMAP
44
00
7C
40
40
40
78
40
40
40
7C
00
00
ENDCHAR
STARTCHAR Igrave
ENCODING 204
BBX 7 13 0 0
SWIDTH 538 0
DWIDTH 7 0
BITMAP
20
10
38
10
10
10
10
10
10
10
38
00
00
ENDCHAR
STARTCHAR Iacute
ENCODING 205
BBX 7 13 0 0
SWIDTH 538 0
DWIDTH 7 0
BITMAP
08
10
38
10
10
10
10
10
10
10
38
00
00
ENDCHAR
STARTCHAR Icircumflex
ENCODING 206
BBX 7 13 0 0
SWIDTH 538 0
DWIDTH 7 0
BITMAP
10
28
00
38
10
10
10
10
10
10
38
00
00
ENDCHAR
STARTCHAR Idieresis
ENCODING 207
BBX 7 13 0 0
SWIDTH 538 0
DWIDTH 7 0
BITMAP
44
00
38
10
10
10
10
10
10
10
38
00
00
ENDCHAR
STARTCHAR Eth
ENCODING 208
BBX 7 13 0 0
SWIDTH 538 0
DWIDTH 7 0
BITMAP
00
00
38
24
24
24
74
24
24
24
38
00
00
ENDCHAR
STARTCHAR Ntilde
ENCODING 209
BBX 7 13 0 0
SWIDTH 538 0
DWIDTH 7 0
BITMAP
34
58
00
44
64
64
54
4C
4C
44
44
00
00
ENDCHAR
STARTCHAR Ograve
ENCODING 210
BBX 7 13 0 0
SWIDTH 538 0
DWIDTH 7 0
BITMAP
20
10
38
44
44
44
44
44
44
44
38
00
00
ENDCHAR
STARTCHAR Oacute
ENCODING 211
BBX 7 13 0 0
SWIDTH 538 0
DWIDTH 7 0
BITMAP
08
10
38
44
44
44
44
44
44
44
38
00
00
ENDCHAR
STARTCHAR Ocircumflex
ENCODING 212
BBX 7 13 0 0
SWIDTH 538 0
DWIDTH 7 0
BITMAP
10
28
00
38
44
44
44
44
44
44
38
00
00
ENDCHAR
STARTCHAR Otilde
ENCODING 213
BBX 7 13 0 0
SWIDTH 538 0
DWIDTH 7 0
BITMAP
34
58
38
44
44
44
44
44
44
44
38
00
00
ENDCHAR
STARTCHAR Odieresis
ENCODING 214
BBX 7 13 0 0
SWIDTH 538 0
DWIDTH 7 0
BITMAP
44
00
38
44
44
44
44
44
44
44
38
00
00
ENDCHAR
STARTCHAR multiply
ENCODING 215
BBX 7 13 0 0
SWIDTH 538 0
DWIDTH 7 0
BITMAP
00
00
00
00
44
28
10
28
44
00
00
00
00
ENDCHAR
STARTCHAR Oslash
ENCODING 216
BBX 7 13 0 0
SWIDTH 538 0
DWIDTH 7 0
BITMAP
00
00
38
46
44
4C
54
64
44
C4
38
00
00
ENDCHAR
STARTCHAR Ugrave
ENCODING 217
BBX 7 13 0 0
SWIDTH 538 0
DWIDTH 7 0
BITMAP
20
10
44
44
44
44
44
44
44
44
38
00
00
ENDCHAR
STARTCHAR Uacute
ENCODING 218
BBX 7 13 0 0
SWIDTH 538 0
DWIDTH 7 0
BITMAP
08
10
44
44
44
44
44
44
44
44
38
00
00
ENDCHAR
STARTCHAR Ucircumflex
ENCODING 219
BBX 7 13 0 0
SWIDTH 538 0
DWIDTH 7 0
BITMAP
10
28
00
44
44
44
44
44
44
44
38
00
00
ENDCHAR
STARTCHAR Udieresis
ENCODING 220
BBX 7 13 0 0
SWIDTH 538 0
DWIDTH 7 0
BITMAP
44
00
44
44
44
44
44
44
44
44
38
00
00
ENDCHAR
STARTCHAR Yacute
ENCODING 221
BBX 7 13 0 0
SWIDTH 538 0
DWIDTH 7 0
BITMAP
08
10
44
44
44
28
10
10
10
10
10
00
00
ENDCHAR
STARTCHAR Thorn
ENCODING 222
BBX 7 13 0 0
SWIDTH 538 0
DWIDTH 7 0
BITMAP
00
00
40
40
78
44
44
44
78
40
40
00
00
ENDCHAR
STARTCHAR germandbls
ENCODING 223
BBX 7 13 0 0
SWIDTH 538 0
DWIDTH 7 0
BITMAP
00
00
18
24
24
28
28
24
24
24
48
00
00
ENDCHAR
STARTCHAR agrave
ENCODING 224
BBX 7 13 0 0
SWIDTH 538 0
DWIDTH 7 0
BITMAP
00
20
10
00
38
04
04
3C
44
44
3C
00
00
ENDCHAR
STARTCHAR aacute
ENCODING 225
BBX 7 13 0 0
SWIDTH 538 0
DWIDTH 7 0
BITMAP
00
08
10
00
38
04
04
3C
44
44
3C
00
00
ENDCHAR
STARTCHAR acircumflex
ENCODING 226
BBX 7 13 0 0
SWIDTH 538 0
DWIDTH 7 0
BITMAP
00
10
28
00
38
04
04
3C
44
44
3C
00
00
ENDCHAR
STARTCHAR atilde
ENCODING 227
BBX 7 13 0 0
SWIDTH 538 0
DWIDTH 7 0
BITMAP
00
34
58
00
38
04
04
3C
44
44
3C
00
00
ENDCHAR
STARTCHAR adieresis
ENCODING 228
BBX 7 13 0 0
SWIDTH 538 0
DWIDTH 7 0
BITMAP
00
00
44
00
38
04
04
3C
44
44
3C
00
00
ENDCHAR
STARTCHAR aring
ENCODING 229
BBX 7 13 0 0
SWIDTH 538 0
DWIDTH 7 0
BITMAP
00
10
28
10
38
04
04
3C
44
44
3C
00
00
ENDCHAR
STARTCHAR ae
ENCODING 230
BBX 7 13 0 0
SWIDTH 538 0
DWIDTH 7 0
BITMAP
00
00
00
00
68
14
14
3C
50
50
3C
00
00
ENDCHAR
STARTCHAR ccedilla
ENCODING 231
BBX 7 13 0 0
SWIDTH 538 0
DWIDTH 7 0
BITMAP
00
00
00
00
3C
40
40
40
40
40
3C
08
30
ENDCHAR
STARTCHAR egrave
ENCODING 232
BBX 7 13 0 0
SWIDTH 538 0
DWIDTH 7 0
BITMAP
00
20
10
00
38
44
44
7C
40
40
3C
00
00
ENDCHAR
STARTCHAR eacute
ENCODING 233
BBX 7 13 0 0
SWIDTH 538 0
DWIDTH 7 0
BITMAP
00
08
10
00
38
44
44
7C
40
40
3C
00
00
ENDCHAR
STARTCHAR ecircumflex
ENCODING 234
BBX 7 13 0 0
SWIDTH 538 0
DWIDTH 7 0
BITMAP
00
10
28
00
38
44
44
7C
40
40
3C
00
00
ENDCHAR
STARTCHAR edieresis
ENCODING 235
BBX 7 13 0 0
SWIDTH 538 0
DWIDTH 7 0
BITMAP
00
00
44
00
38
44
44
7C
40
40
3C
00
00
ENDCHAR
STARTCHAR igrave
ENCODING 236
BBX 7 13 0 0
SWIDTH 538 0
DWIDTH 7 0
BITMAP
00
20
10
00
30
10
10
10
10
10
38
00
00
ENDCHAR
STARTCHAR iacute
ENCODING 237
BBX 7 13 0 0
SWIDTH 538 0
DWIDTH 7 0
BITMAP
00
10
20
00
30
10
10
10
10
10
38
00
00
ENDCHAR
STARTCHAR icircumflex
ENCODING 238
BBX 7 13 0 0
SWIDTH 538 0
DWIDTH 7 0
BITMAP
00
10
28
00
30
10
10
10
10
10
38
00
00
ENDCHAR
STARTCHAR idieresis
ENCODING 239
BBX 7 13 0 0
SWIDTH 538 0
DWIDTH 7 0
BITMAP
00
00
44
00
30
10
10
10
10
10
38
00
00
ENDCHAR
STARTCHAR eth
ENCODING 240
BBX 7 13 0 0
SWIDTH 538 0
DWIDTH 7 0
BITMAP
00
00
28
10
28
04
3C
44
44
44
38
00
00
ENDCHAR
STARTCHAR ntilde
ENCODING 241
BBX 7 13 0 0
SWIDTH 538 0
DWIDTH 7 0
BITMAP
00
34
58
00
78
44
44
44
44
44
44
00
00
ENDCHAR
STARTCHAR ograve
ENCODING 242
BBX 7 13 0 0
SWIDTH 538 0
DWIDTH 7 0
BITMAP
00
20
10
00
38
44
44
44
44
44
38
00
00
ENDCHAR
STARTCHAR oacute
ENCODING 243
BBX 7 13 0 0
SWIDTH 538 0
DWIDTH 7 0
BITMAP
00
08
10
00
38
44
44
44
44
44
38
00
00
ENDCHAR
STARTCHAR ocircumflex
ENCODING 244
BBX 7 13 0 0
SWIDTH 538 0
DWIDTH 7 0
BITMAP
00
10
28
00
38
44
44
44
44
44
38
00
00
ENDCHAR
STARTCHAR otilde
ENCODING 245
BBX 7 13 0 0
SWIDTH 538 0
DWIDTH 7 0
BITMAP
00
34
58
00
38
44
44
44
44
44
38
00
00
ENDCHAR
STARTCHAR odieresis
ENCODING 246
BBX 7 13 0 0
SWIDTH 538 0
DWIDTH 7 0
BITMAP
00
00
44
00
38
44
44
44
44
44
38
00
00
ENDCHAR
STARTCHAR divide
ENCODING 247
BBX 7 13 0 0
SWIDTH 538 0
DWIDTH 7 0
BITMAP
00
00
00
00
10
00
7C
00
10
00
00
00
00
ENDCHAR
STARTCHAR oslash
ENCODING 248
BBX 7 13 0 0
SWIDTH 538 0
DWIDTH 7 0
BITMAP
00
00
00
00
3A
44
4C
54
64
44
B8
00
00
ENDCHAR
STARTCHAR ugrave
ENCODING 249
BBX 7 13 0 0
SWIDTH 538 0
DWIDTH 7 0
BITMAP
00
20
10
00
44
44
44
44
44
4C
34
00
00
ENDCHAR
STARTCHAR uacute
ENCODING 250
BBX 7 13 0 0
SWIDTH 538 0
DWIDTH 7 0
BITMAP
00
10
20
00
44
44
44
44
44
4C
34
00
00
ENDCHAR
STARTCHAR ucircumflex
ENCODING 251
BBX 7 13 0 0
SWIDTH 538 0
DWIDTH 7 0
BITMAP
00
10
28
00
44
44
44
44
44
4C
34
00
00
ENDCHAR
STARTCHAR udieresis
ENCODING 252
BBX 7 13 0 0
SWIDTH 538 0
DWIDTH 7 0
BITMAP
00
00
44
00
44
44
44
44
44
4C
34
00
00
ENDCHAR
STARTCHAR yacute
ENCODING 253
BBX 7 13 0 0
SWIDTH 538 0
DWIDTH 7 0
BITMAP
00
08
10
00
44
44
44
44
44
3C
04
04
38
ENDCHAR
STARTCHAR thorn
ENCODING 254
BBX 7 13 0 0
SWIDTH 538 0
DWIDTH 7 0
BITMAP
00
00
40
40
40
78
44
44
44
78
40
40
40
ENDCHAR
STARTCHAR ydieresis
ENCODING 255
BBX 7 13 0 0
SWIDTH 538 0
DWIDTH 7 0
BITMAP
00
00
44
00
44
44
44
44
44
3C
04
04
38
ENDCHAR
STARTCHAR uni2010
ENCODING 8208
BBX 7 13 0 0
SWIDTH 538 0
DWIDTH 7 0
BITMAP
00
00
00
00
00
00
38
00
00
00
00
00
00
ENDCHAR
STARTCHAR uni2011
ENCODING 8209
BBX 7 13 0 0
SWIDTH 538 0
DWIDTH 7 0
BITMAP
00
00
00
00
00
00
38
00
00
00
00
00
00
ENDCHAR
STARTCHAR figuredash
ENCODING 8210
BBX 7 13 0 0
SWIDTH 538 0
DWIDTH 7 0
BITMAP
00
00
00
00
00
00
7C
00
00
00
00
00
00
ENDCHAR
STARTCHAR endash
ENCODING 8211
BBX 7 13 0 0
SWIDTH 538 0
DWIDTH 7 0
BITMAP
00
00
00
00
00
00
7C
00
00
00
00
00
00
ENDCHAR
STARTCHAR emdash
ENCODING 8212
BBX 7 13 0 0
SWIDTH 538 0
DWIDTH 7 0
BITMAP
00
00
00
00
00
00
FE
00
00
00
00
00
00
ENDCHAR
STARTCHAR uni2015
ENCODING 8213
BBX 7 13 0 0
SWIDTH 538 0
DWIDTH 7 0
BITMAP
00
00
00
00
00
00
FE
00
00
00
00
00
00
ENDCHAR
STARTCHAR uni2016
ENCODING 8214
BBX 7 13 0 0
SWIDTH 538 0
DWIDTH 7 0
BITMAP
00
28
28
28
28
28
28
28
28
28
28
28
00
ENDCHAR
STARTCHAR underscoredbl
ENCODING 8215
BBX 7 13 0 0
SWIDTH 538 0
DWIDTH 7 0
BITMAP
00
00
00
00
00
00
00
00
00
7C
00
7C
00
ENDCHAR
STARTCHAR quoteleft
ENCODING 8216
BBX 7 13 0 0
SWIDTH 538 0
DWIDTH 7 0
BITMAP
00
00
08
10
10
00
00
00
00
00
00
00
00
ENDCHAR
STARTCHAR quoteright
ENCODING 8217
BBX 7 13 0 0
SWIDTH 538 0
DWIDTH 7 0
BITMAP
00
00
10
10
20
00
00
00
00
00
00
00
00
ENDCHAR
STARTCHAR quotesinglbase
ENCODING 8218
BBX 7 13 0 0
SWIDTH 538 0
DWIDTH 7 0
BITMAP
00
00
00
00
00
00
00
00
00
10
10
20
00
ENDCHAR
STARTCHAR quotereversed
ENCODING 8219
BBX 7 13 0 0
SWIDTH 538 0
DWIDTH 7 0
BITMAP
00
00
20
20
10
00
00
00
00
00
00
00
00
ENDCHAR
STARTCHAR quotedblleft
ENCODING 8220
BBX 7 13 0 0
SWIDTH 538 0
DWIDTH 7 0
BITMAP
00
00
24
48
48
00
00
00
00
00
00
00
00
ENDCHAR
STARTCHAR quotedblright
ENCODING 8221
BBX 7 13 0 0
SWIDTH 538 0
DWIDTH 7 0
BITMAP
00
00
24
24
48
00
00
00
00
00
00
00
00
ENDCHAR
STARTCHAR quotedblbase
ENCODING 8222
BBX 7 13 0 0
SWIDTH 538 0
DWIDTH 7 0
BITMAP
00
00
00
00
00
00
00
00
00
24
24
48
00
ENDCHAR
STARTCHAR uni201F
ENCODING 8223
BBX 7 13 0 0
SWIDTH 538 0
DWIDTH 7 0
BITMAP
00
00
48
48
24
00
00
00
00
00
00
00
00
ENDCHAR
STARTCHAR dagger
ENCODING 8224
BBX 7 13 0 0
SWIDTH 538 0
DWIDTH 7 0
BITMAP
00
10
10
7C
10
10
10
10
10
10
10
10
00
ENDCHAR
STARTCHAR daggerdbl
ENCODING 8225
BBX 7 13 0 0
SWIDTH 538 0
DWIDTH 7 0
BITMAP
00
10
10
7C
10
10
7C
10
10
10
10
10
00
ENDCHAR
STARTCHAR bullet
ENCODING 8226
BBX 7 13 0 0
SWIDTH 538 0
DWIDTH 7 0
BITMAP
00
00
00
00
38
7C
7C
7C
38
00
00
00
00
ENDCHAR
STARTCHAR uni2023
ENCODING 8227
BBX 7 13 0 0
SWIDTH 538 0
DWIDTH 7 0
BITMAP
00
00
00
00
40
70
7C
70
40
00
00
00
00
ENDCHAR
STARTCHAR onedotenleader
ENCODING 8228
BBX 7 13 0 0
SWIDTH 538 0
DWIDTH 7 0
BITMAP
00
00
00
00
00
00
00
00
00
00
10
00
00
ENDCHAR
STARTCHAR twodotenleader
ENCODING 8229
BBX 7 13 0 0
SWIDTH 538 0
DWIDTH 7 0
BITMAP
00
00
00
00
00
00
00
00
00
00
48
00
00
ENDCHAR
STARTCHAR ellipsis
ENCODING 8230
BBX 7 13 0 0
SWIDTH 538 0
DWIDTH 7 0
BITMAP
00
00
00
00
00
00
00
00
00
00
54
00
00
ENDCHAR
STARTCHAR uni2027
ENCODING 8231
BBX 7 13 0 0
SWIDTH 538 0
DWIDTH 7 0
BITMAP
00
00
00
00
00
00
10
00
00
00
00
00
00
ENDCHAR
STARTCHAR perthousand
ENCODING 8240
BBX 7 13 0 0
SWIDTH 538 0
DWIDTH 7 0
BITMAP
00
00
C0
C0
08
10
20
40
80
6C
6C
00
00
ENDCHAR
STARTCHAR uni2031
ENCODING 8241
BBX 7 13 0 0
SWIDTH 538 0
DWIDTH 7 0
BITMAP
00
00
C0
C0
08
10
20
40
80
54
54
00
00
ENDCHAR
STARTCHAR minute
ENCODING 8242
BBX 7 13 0 0
SWIDTH 538 0
DWIDTH 7 0
BITMAP
00
00
08
10
20
00
00
00
00
00
00
00
00
ENDCHAR
STARTCHAR second
ENCODING 8243
BBX 7 13 0 0
SWIDTH 538 0
DWIDTH 7 0
BITMAP
00
00
14
28
50
00
00
00
00
00
00
00
00
ENDCHAR
STARTCHAR uni2034
ENCODING 8244
BBX 7 13 0 0
SWIDTH 538 0
DWIDTH 7 0
BITMAP
00
00
2A
54
A8
00
00
00
00
00
00
00
00
ENDCHAR
STARTCHAR uni2035
ENCODING 8245
BBX 7 13 0 0
SWIDTH 538 0
DWIDTH 7 0
BITMAP
00
00
20
10
08
00
00
00
00
00
00
00
00
ENDCHAR
STARTCHAR uni2036
ENCODING 8246
BBX 7 13 0 0
SWIDTH 538 0
DWIDTH 7 0
BITMAP
00
00
50
28
14
00
00
00
00
00
00
00
00
ENDCHAR
STARTCHAR uni2037
ENCODING 8247
BBX 7 13 0 0
SWIDTH 538 0
DWIDTH 7 0
BITMAP
00
00
A8
54
2A
00
00
00
00
00
00
00
00
ENDCHAR
STARTCHAR uni2038
ENCODING 8248
BBX 7 13 0 0
SWIDTH 538 0
DWIDTH 7 0
BITMAP
00
00
00
00
00
00
00
00
00
00
10
28
44
ENDCHAR
STARTCHAR guilsinglleft
ENCODING 8249
BBX 7 13 0 0
SWIDTH 538 0
DWIDTH 7 0
BITMAP
00
00
00
08
10
20
40
20
10
08
00
00
00
ENDCHAR
STARTCHAR guilsinglright
ENCODING 8250
BBX 7 13 0 0
SWIDTH 538 0
DWIDTH 7 0
BITMAP
00
00
00
20
10
08
04
08
10
20
00
00
00
ENDCHAR
STARTCHAR uni203B
ENCODING 8251
BBX 7 13 0 0
SWIDTH 538 0
DWIDTH 7 0
BITMAP
00
00
00
00
10
44
28
92
28
44
10
00
00
ENDCHAR
STARTCHAR exclamdbl
ENCODING 8252
BBX 7 13 0 0
SWIDTH 538 0
DWIDTH 7 0
BITMAP
00
00
28
28
28
28
28
28
00
00
28
00
00
ENDCHAR
STARTCHAR uni203D
ENCODING 8253
BBX 7 13 0 0
SWIDTH 538 0
DWIDTH 7 0
BITMAP
00
00
38
54
14
18
10
10
00
00
10
00
00
ENDCHAR
STARTCHAR uni203E
ENCODING 8254
BBX 7 13 0 0
SWIDTH 538 0
DWIDTH 7 0
BITMAP
00
00
7C
00
00
00
00
00
00
00
00
00
00
ENDCHAR
STARTCHAR uni203F
ENCODING 8255
BBX 7 13 0 0
SWIDTH 538 0
DWIDTH 7 0
BITMAP
00
00
00
00
00
00
00
00
00
00
44
38
00
ENDCHAR
STARTCHAR uni2040
ENCODING 8256
BBX 7 13 0 0
SWIDTH 538 0
DWIDTH 7 0
BITMAP
00
38
44
00
00
00
00
00
00
00
00
00
00
ENDCHAR
STARTCHAR uni2041
ENCODING 8257
BBX 7 13 0 0
SWIDTH 538 0
DWIDTH 7 0
BITMAP
00
00
00
00
00
00
00
00
04
08
10
28
44
ENDCHAR
STARTCHAR uni2042
ENCODING 8258
BBX 7 13 0 0
SWIDTH 538 0
DWIDTH 7 0
BITMAP
10
38
10
38
10
00
44
EE
44
EE
44
00
00
ENDCHAR
STARTCHAR uni2043
ENCODING 8259
BBX 7 13 0 0
SWIDTH 538 0
DWIDTH 7 0
BITMAP
00
00
00
00
00
00
38
00
00
00
00
00
00
ENDCHAR
STARTCHAR fraction
ENCODING 8260
BBX 7 13 0 0
SWIDTH 538 0
DWIDTH 7 0
BITMAP
00
00
00
00
04
08
10
20
40
00
00
00
00
ENDCHAR
STARTCHAR uni2045
ENCODING 8261
BBX 7 13 0 0
SWIDTH 538 0
DWIDTH 7 0
BITMAP
00
7C
60
60
60
60
7C
60
60
60
60
7C
00
ENDCHAR
STARTCHAR uni2046
ENCODING 8262
BBX 7 13 0 0
SWIDTH 538 0
DWIDTH 7 0
BITMAP
00
7C
0C
0C
0C
0C
7C
0C
0C
0C
0C
7C
00
ENDCHAR
STARTCHAR uni2047
ENCODING 8263
BBX 7 13 0 0
SWIDTH 538 0
DWIDTH 7 0
BITMAP
00
00
48
B4
24
48
48
48
00
00
48
00
00
ENDCHAR
STARTCHAR uni2048
ENCODING 8264
BBX 7 13 0 0
SWIDTH 538 0
DWIDTH 7 0
BITMAP
00
00
24
54
14
24
24
24
00
00
24
00
00
ENDCHAR
STARTCHAR uni2049
ENCODING 8265
BBX 7 13 0 0
SWIDTH 538 0
DWIDTH 7 0
BITMAP
00
00
48
54
44
48
48
48
00
00
48
00
00
ENDCHAR
STARTCHAR uni204A
ENCODING 8266
BBX 7 13 0 0
SWIDTH 538 0
DWIDTH 7 0
BITMAP
00
00
00
00
00
00
00
00
00
00
00
00
00
ENDCHAR
STARTCHAR uni204B
ENCODING 8267
BBX 7 13 0 0
SWIDTH 538 0
DWIDTH 7 0
BITMAP
00
00
78
54
54
54
78
50
50
50
50
00
00
ENDCHAR
STARTCHAR uni204C
ENCODING 8268
BBX 7 13 0 0
SWIDTH 538 0
DWIDTH 7 0
BITMAP
00
00
00
00
3C
7C
7C
7C
3C
00
00
00
00
ENDCHAR
STARTCHAR uni204D
ENCODING 8269
BBX 7 13 0 0
SWIDTH 538 0
DWIDTH 7 0
BITMAP
00
00
00
00
78
7C
7C
7C
78
00
00
00
00
ENDCHAR
STARTCHAR uni204E
ENCODING 8270
BBX 7 13 0 0
SWIDTH 538 0
DWIDTH 7 0
BITMAP
00
00
00
00
10
54
38
10
38
54
10
00
00
ENDCHAR
STARTCHAR uni204F
ENCODING 8271
BBX 7 13 0 0
SWIDTH 538 0
DWIDTH 7 0
BITMAP
00
00
00
00
10
00
00
00
00
10
10
08
00
ENDCHAR
STARTCHAR uni2050
ENCODING 8272
BBX 7 13 0 0
SWIDTH 538 0
DWIDTH 7 0
BITMAP
00
38
44
00
00
00
00
00
00
00
44
38
00
ENDCHAR
STARTCHAR uni2051
ENCODING 8273
BBX 7 13 0 0
SWIDTH 538 0
DWIDTH 7 0
BITMAP
00
10
54
38
54
10
00
10
54
38
54
10
00
ENDCHAR
STARTCHAR uni2052
ENCODING 8274
BBX 7 13 0 0
SWIDTH 538 0
DWIDTH 7 0
BITMAP
00
00
00
00
04
48
10
24
40
00
00
00
00
ENDCHAR
STARTCHAR uni2053
ENCODING 8275
BBX 7 13 0 0
SWIDTH 538 0
DWIDTH 7 0
BITMAP
00
00
00
00
00
00
64
98
00
00
00
00
00
ENDCHAR
STARTCHAR uni2054
ENCODING 8276
BBX 7 13 0 0
SWIDTH 538 0
DWIDTH 7 0
BITMAP
00
00
00
00
00
00
00
00
00
38
44
00
00
ENDCHAR
STARTCHAR uni2055
ENCODING 8277
BBX 7 13 0 0
SWIDTH 538 0
DWIDTH 7 0
BITMAP
00
00
00
10
54
38
7C
38
54
10
00
00
00
ENDCHAR
STARTCHAR uni2056
ENCODING 8278
BBX 7 13 0 0
SWIDTH 538 0
DWIDTH 7 0
BITMAP
00
00
00
00
00
00
04
00
40
00
04
00
00
ENDCHAR
STARTCHAR uni2057
ENCODING 8279
BBX 7 13 0 0
SWIDTH 538 0
DWIDTH 7 0
BITMAP
00
00
AA
AA
AA
00
00
00
00
00
00
00
00
ENDCHAR
STARTCHAR uni2058
ENCODING 8280
BBX 7 13 0 0
SWIDTH 538 0
DWIDTH 7 0
BITMAP
00
00
00
00
00
00
10
00
44
00
10
00
00
ENDCHAR
STARTCHAR uni2059
ENCODING 8281
BBX 7 13 0 0
SWIDTH 538 0
DWIDTH 7 0
BITMAP
00
00
00
00
00
00
44
00
10
00
44
00
00
ENDCHAR
STARTCHAR uni205A
ENCODING 8282
BBX 7 13 0 0
SWIDTH 538 0
DWIDTH 7 0
BITMAP
00
00
00
10
00
00
00
00
00
10
00
00
00
ENDCHAR
STARTCHAR uni205B
ENCODING 8283
BBX 7 13 0 0
SWIDTH 538 0
DWIDTH 7 0
BITMAP
00
00
00
00
10
00
00
44
00
00
10
00
00
ENDCHAR
STARTCHAR uni205C
ENCODING 8284
BBX 7 13 0 0
SWIDTH 538 0
DWIDTH 7 0
BITMAP
00
00
00
00
54
10
7C
10
54
00
00
00
00
ENDCHAR
STARTCHAR uni205D
ENCODING 8285
BBX 7 13 0 0
SWIDTH 538 0
DWIDTH 7 0
BITMAP
00
00
00
00
10
00
00
10
00
00
10
00
00
ENDCHAR
STARTCHAR uni205E
ENCODING 8286
BBX 7 13 0 0
SWIDTH 538 0
DWIDTH 7 0
BITMAP
00
00
00
10
00
10
00
10
00
10
00
00
00
ENDCHAR
STARTCHAR uni205F
ENCODING 8287
BBX 7 13 0 0
SWIDTH 538 0
DWIDTH 7 0
BITMAP
00
00
00
00
00
00
00
00
00
00
00
00
00
ENDCHAR
STARTCHAR upblock
ENCODING 9600
BBX 7 13 0 0
SWIDTH 538 0
DWIDTH 7 0
BITMAP
FE
FE
FE
FE
FE
FE
AA
00
00
00
00
00
00
ENDCHAR
STARTCHAR uni2581
ENCODING 9601
BBX 7 13 0 0
SWIDTH 538 0
DWIDTH 7 0
BITMAP
00
00
00
00
00
00
00
00
00
00
00
FE
FE
ENDCHAR
STARTCHAR uni2582
ENCODING 9602
BBX 7 13 0 0
SWIDTH 538 0
DWIDTH 7 0
BITMAP
00
00
00
00
00
00
00
00
00
00
FE
FE
FE
ENDCHAR
STARTCHAR uni2583
ENCODING 9603
BBX 7 13 0 0
SWIDTH 538 0
DWIDTH 7 0
BITMAP
00
00
00
00
00
00
00
00
FE
FE
FE
FE
FE
ENDCHAR
STARTCHAR dnblock
ENCODING 9604
BBX 7 13 0 0
SWIDTH 538 0
DWIDTH 7 0
BITMAP
00
00
00
00
00
00
AA
FE
FE
FE
FE
FE
FE
ENDCHAR
STARTCHAR uni2585
ENCODING 9605
BBX 7 13 0 0
SWIDTH 538 0
DWIDTH 7 0
BITMAP
00
00
00
00
00
FE
FE
FE
FE
FE
FE
FE
FE
ENDCHAR
STARTCHAR uni2586
ENCODING 9606
BBX 7 13 0 0
SWIDTH 538 0
DWIDTH 7 0
BITMAP
00
00
00
FE
FE
FE
FE
FE
FE
FE
FE
FE
FE
ENDCHAR
STARTCHAR uni2587
ENCODING 9607
BBX 7 13 0 0
SWIDTH 538 0
DWIDTH 7 0
BITMAP
00
00
FE
FE
FE
FE
FE
FE
FE
FE
FE
FE
FE
ENDCHAR
STARTCHAR block
ENCODING 9608
BBX 7 13 0 0
SWIDTH 538 0
DWIDTH 7 0
BITMAP
FE
FE
FE
FE
FE
FE
FE
FE
FE
FE
FE
FE
FE
ENDCHAR
STARTCHAR uni2589
ENCODING 9609
BBX 7 13 0 0
SWIDTH 538 0
DWIDTH 7 0
BITMAP
FC
FC
FC
FC
FC
FC
FC
FC
FC
FC
FC
FC
FC
ENDCHAR
STARTCHAR uni258A
ENCODING 9610
BBX 7 13 0 0
SWIDTH 538 0
DWIDTH 7 0
BITMAP
F8
F8
F8
F8
F8
F8
F8
F8
F8
F8
F8
F8
F8
ENDCHAR
STARTCHAR uni258B
ENCODING 9611
BBX 7 13 0 0
SWIDTH 538 0
DWIDTH 7 0
BITMAP
F0
F0
F0
F0
F0
F0
F0
F0
F0
F0
F0
F0
F0
ENDCHAR
STARTCHAR lfblock
ENCODING 9612
BBX 7 13 0 0
SWIDTH 538 0
DWIDTH 7 0
BITMAP
F0
E0
F0
E0
F0
E0
F0
E0
F0
E0
F0
E0
F0
ENDCHAR
STARTCHAR uni258D
ENCODING 9613
BBX 7 13 0 0
SWIDTH 538 0
DWIDTH 7 0
BITMAP
E0
E0
E0
E0
E0
E0
E0
E0
E0
E0
E0
E0
E0
ENDCHAR
STARTCHAR uni258E
ENCODING 9614
BBX 7 13 0 0
SWIDTH 538 0
DWIDTH 7 0
BITMAP
C0
C0
C0
C0
C0
C0
C0
C0
C0
C0
C0
C0
C0
ENDCHAR
STARTCHAR uni258F
ENCODING 9615
BBX 7 13 0 0
SWIDTH 538 0
DWIDTH 7 0
BITMAP
80
80
80
80
80
80
80
80
80
80
80
80
80
ENDCHAR
STARTCHAR rtblock
ENCODING 9616
BBX 7 13 0 0
SWIDTH 538 0
DWIDTH 7 0
BITMAP
1E
0E
1E
0E
1E
0E
1E
0E
1E
0E
1E
0E
1E
ENDCHAR
STARTCHAR ltshade
ENCODING 9617
BBX 7 13 0 0
SWIDTH 538 0
DWIDTH 7 0
BITMAP
AA
00
AA
00
AA
00
AA
00
AA
00
AA
00
AA
ENDCHAR
STARTCHAR shade
ENCODING 9618
BBX 7 13 0 0
SWIDTH 538 0
DWIDTH 7 0
BITMAP
AA
54
AA
54
AA
54
AA
54
AA
54
AA
54
AA
ENDCHAR
STARTCHAR dkshade
ENCODING 9619
BBX 7 13 0 0
SWIDTH 538 0
DWIDTH 7 0
BITMAP
54
FE
54
FE
54
FE
54
FE
54
FE
54
FE
54
ENDCHAR
STARTCHAR uni2594
ENCODING 9620
BBX 7 13 0 0
SWIDTH 538 0
DWIDTH 7 0
BITMAP
FE
FE
00
00
00
00
00
00
00
00
00
00
00
ENDCHAR
STARTCHAR uni2595
ENCODING 9621
BBX 7 13 0 0
SWIDTH 538 0
DWIDTH 7 0
BITMAP
02
02
02
02
02
02
02
02
02
02
02
02
02
ENDCHAR
STARTCHAR uni2596
ENCODING 9622
BBX 7 13 0 0
SWIDTH 538 0
DWIDTH 7 0
BITMAP
00
00
00
00
00
00
F0
E0
F0
E0
F0
E0
F0
ENDCHAR
STARTCHAR uni2597
ENCODING 9623
BBX 7 13 0 0
SWIDTH 538 0
DWIDTH 7 0
BITMAP
00
00
00
00
00
00
1E
0E
1E
0E
1E
0E
1E
ENDCHAR
STARTCHAR uni2598
ENCODING 9624
BBX 7 13 0 0
SWIDTH 538 0
DWIDTH 7 0
BITMAP
F0
E0
F0
E0
F0
E0
F0
00
00
00
00
00
00
ENDCHAR
STARTCHAR uni2599
ENCODING 9625
BBX 7 13 0 0
SWIDTH 538 0
DWIDTH 7 0
BITMAP
F0
E0
F0
E0
F0
E0
EA
FE
FE
FE
FE
FE
FE
ENDCHAR
STARTCHAR uni259A
ENCODING 9626
BBX 7 13 0 0
SWIDTH 538 0
DWIDTH 7 0
BITMAP
F0
E0
F0
E0
F0
E0
AA
0E
1E
0E
1E
0E
1E
ENDCHAR
STARTCHAR uni259B
ENCODING 9627
BBX 7 13 0 0
SWIDTH 538 0
DWIDTH 7 0
BITMAP
FE
FE
FE
FE
FE
EA
F0
E0
F0
E0
F0
E0
F0
ENDCHAR
STARTCHAR uni259C
ENCODING 9628
BBX 7 13 0 0
SWIDTH 538 0
DWIDTH 7 0
BITMAP
FE
FE
FE
FE
FE
FE
AE
0E
1E
0E
1E
0E
1E
ENDCHAR
STARTCHAR uni259D
ENCODING 9629
BBX 7 13 0 0
SWIDTH 538 0
DWIDTH 7 0
BITMAP
1E
0E
1E
0E
1E
0E
16
00
00
00
00
00
00
ENDCHAR
STARTCHAR uni259E
ENCODING 9630
BBX 7 13 0 0
SWIDTH 538 0
DWIDTH 7 0
BITMAP
1E
0E
1E
0E
1E
0E
AA
E0
F0
E0
F0
E0
F0
ENDCHAR
STARTCHAR uni259F
ENCODING 9631
BBX 7 13 0 0
SWIDTH 538 0
DWIDTH 7 0
BITMAP
1E
0E
1E
0E
1E
0E
AE
FE
FE
FE
FE
FE
FE
ENDCHAR
STARTCHAR uni2070
ENCODING 8304
BBX 7 13 0 0
SWIDTH 538 0
DWIDTH 7 0
BITMAP
00
10
28
28
28
10
00
00
00
00
00
00
00
ENDCHAR
STARTCHAR uni2071
ENCODING 8305
BBX 7 13 0 0
SWIDTH 538 0
DWIDTH 7 0
BITMAP
00
10
00
30
10
38
00
00
00
00
00
00
00
ENDCHAR
STARTCHAR uni2074
ENCODING 8308
BBX 7 13 0 0
SWIDTH 538 0
DWIDTH 7 0
BITMAP
00
08
18
28
3C
08
00
00
00
00
00
00
00
ENDCHAR
STARTCHAR uni2075
ENCODING 8309
BBX 7 13 0 0
SWIDTH 538 0
DWIDTH 7 0
BITMAP
00
38
20
30
08
30
00
00
00
00
00
00
00
ENDCHAR
STARTCHAR uni2076
ENCODING 8310
BBX 7 13 0 0
SWIDTH 538 0
DWIDTH 7 0
BITMAP
00
18
20
30
28
10
00
00
00
00
00
00
00
ENDCHAR
STARTCHAR uni2077
ENCODING 8311
BBX 7 13 0 0
SWIDTH 538 0
DWIDTH 7 0
BITMAP
00
38
08
10
20
20
00
00
00
00
00
00
00
ENDCHAR
STARTCHAR uni2078
ENCODING 8312
BBX 7 13 0 0
SWIDTH 538 0
DWIDTH 7 0
BITMAP
00
38
28
10
28
38
00
00
00
00
00
00
00
ENDCHAR
STARTCHAR uni2079
ENCODING 8313
BBX 7 13 0 0
SWIDTH 538 0
DWIDTH 7 0
BITMAP
00
10
28
18
08
30
00
00
00
00
00
00
00
ENDCHAR
STARTCHAR uni207A
ENCODING 8314
BBX 7 13 0 0
SWIDTH 538 0
DWIDTH 7 0
BITMAP
00
10
10
7C
10
10
00
00
00
00
00
00
00
ENDCHAR
STARTCHAR uni207B
ENCODING 8315
BBX 7 13 0 0
SWIDTH 538 0
DWIDTH 7 0
BITMAP
00
00
00
7C
00
00
00
00
00
00
00
00
00
ENDCHAR
STARTCHAR uni207C
ENCODING 8316
BBX 7 13 0 0
SWIDTH 538 0
DWIDTH 7 0
BITMAP
00
00
7C
00
7C
00
00
00
00
00
00
00
00
ENDCHAR
STARTCHAR uni207D
ENCODING 8317
BBX 7 13 0 0
SWIDTH 538 0
DWIDTH 7 0
BITMAP
10
20
40
40
40
20
10
00
00
00
00
00
00
ENDCHAR
STARTCHAR uni207E
ENCODING 8318
BBX 7 13 0 0
SWIDTH 538 0
DWIDTH 7 0
BITMAP
10
08
04
04
04
08
10
00
00
00
00
00
00
ENDCHAR
STARTCHAR uni207F
ENCODING 8319
BBX 7 13 0 0
SWIDTH 538 0
DWIDTH 7 0
BITMAP
00
30
28
28
28
00
00
00
00
00
00
00
00
ENDCHAR
STARTCHAR uni2080
ENCODING 8320
BBX 7 13 0 0
SWIDTH 538 0
DWIDTH 7 0
BITMAP
00
00
00
00
00
00
00
10
28
28
28
10
00
ENDCHAR
STARTCHAR uni2081
ENCODING 8321
BBX 7 13 0 0
SWIDTH 538 0
DWIDTH 7 0
BITMAP
00
00
00
00
00
00
00
10
30
10
10
38
00
ENDCHAR
STARTCHAR uni2082
ENCODING 8322
BBX 7 13 0 0
SWIDTH 538 0
DWIDTH 7 0
BITMAP
00
00
00
00
00
00
00
30
08
10
20
38
00
ENDCHAR
STARTCHAR uni2083
ENCODING 8323
BBX 7 13 0 0
SWIDTH 538 0
DWIDTH 7 0
BITMAP
00
00
00
00
00
00
00
38
08
10
08
30
00
ENDCHAR
STARTCHAR uni2084
ENCODING 8324
BBX 7 13 0 0
SWIDTH 538 0
DWIDTH 7 0
BITMAP
00
00
00
00
00
00
00
08
18
28
3C
08
00
ENDCHAR
STARTCHAR uni2085
ENCODING 8325
BBX 7 13 0 0
SWIDTH 538 0
DWIDTH 7 0
BITMAP
00
00
00
00
00
00
00
38
20
30
08
30
00
ENDCHAR
STARTCHAR uni2086
ENCODING 8326
BBX 7 13 0 0
SWIDTH 538 0
DWIDTH 7 0
BITMAP
00
00
00
00
00
00
00
18
20
30
28
10
00
ENDCHAR
STARTCHAR uni2087
ENCODING 8327
BBX 7 13 0 0
SWIDTH 538 0
DWIDTH 7 0
BITMAP
00
00
00
00
00
00
00
38
08
10
20
20
00
ENDCHAR
STARTCHAR uni2088
ENCODING 8328
BBX 7 13 0 0
SWIDTH 538 0
DWIDTH 7 0
BITMAP
00
00
00
00
00
00
00
38
28
10
28
38
00
ENDCHAR
STARTCHAR uni2089
ENCODING 8329
BBX 7 13 0 0
SWIDTH 538 0
DWIDTH 7 0
BITMAP
00
00
00
00
00
00
00
10
28
18
08
30
00
ENDCHAR
STARTCHAR uni208A
ENCODING 8330
BBX 7 13 0 0
SWIDTH 538 0
DWIDTH 7 0
BITMAP
00
00
00
00
00
00
00
10
10
7C
10
10
00
ENDCHAR
STARTCHAR uni208B
ENCODING 8331
BBX 7 13 0 0
SWIDTH 538 0
DWIDTH 7 0
BITMAP
00
00
00
00
00
00
00
00
00
7C
00
00
00
ENDCHAR
STARTCHAR uni208C
ENCODING 8332
BBX 7 13 0 0
SWIDTH 538 0
DWIDTH 7 0
BITMAP
00
00
00
00
00
00
00
00
7C
00
7C
00
00
ENDCHAR
STARTCHAR uni208D
ENCODING 8333
BBX 7 13 0 0
SWIDTH 538 0
DWIDTH 7 0
BITMAP
00
00
00
00
00
00
10
20
40
40
40
20
10
ENDCHAR
STARTCHAR uni208E
ENCODING 8334
BBX 7 13 0 0
SWIDTH 538 0
DWIDTH 7 0
BITMAP
00
00
00
00
00
00
10
08
04
04
04
08
10
ENDCHAR
STARTCHAR uni2090
ENCODING 8336
BBX 7 13 0 0
SWIDTH 538 0
DWIDTH 7 0
BITMAP
00
00
00
00
00
00
00
00
30
18
28
38
00
ENDCHAR
STARTCHAR uni2091
ENCODING 8337
BBX 7 13 0 0
SWIDTH 538 0
DWIDTH 7 0
BITMAP
00
00
00
00
00
00
00
00
10
38
20
18
00
ENDCHAR
STARTCHAR uni2092
ENCODING 8338
BBX 7 13 0 0
SWIDTH 538 0
DWIDTH 7 0
BITMAP
00
00
00
00
00
00
00
00
10
28
28
10
00
ENDCHAR
STARTCHAR uni2093
ENCODING 8339
BBX 7 13 0 0
SWIDTH 538 0
DWIDTH 7 0
BITMAP
00
00
00
00
00
00
00
00
28
10
28
28
00
ENDCHAR
STARTCHAR uni2094
ENCODING 8340
BBX 7 13 0 0
SWIDTH 538 0
DWIDTH 7 0
BITMAP
00
00
00
00
00
00
00
00
30
08
38
10
00
ENDCHAR
STARTCHAR uni2095
ENCODING 8341
BBX 7 13 0 0
SWIDTH 538 0
DWIDTH 7 0
BITMAP
00
00
00
00
00
00
00
20
20
30
28
28
00
ENDCHAR
STARTCHAR uni2096
ENCODING 8342
BBX 7 13 0 0
SWIDTH 538 0
DWIDTH 7 0
BITMAP
00
00
00
00
00
00
00
20
28
30
28
28
00
ENDCHAR
STARTCHAR uni2097
ENCODING 8343
BBX 7 13 0 0
SWIDTH 538 0
DWIDTH 7 0
BITMAP
00
00
00
00
00
00
00
30
10
10
10
38
00
ENDCHAR
STARTCHAR uni2098
ENCODING 8344
BBX 7 13 0 0
SWIDTH 538 0
DWIDTH 7 0
BITMAP
00
00
00
00
00
00
00
00
6C
54
54
54
00
ENDCHAR
STARTCHAR uni2099
ENCODING 8345
BBX 7 13 0 0
SWIDTH 538 0
DWIDTH 7 0
BITMAP
00
00
00
00
00
00
00
00
30
28
28
28
00
ENDCHAR
STARTCHAR uni209A
ENCODING 8346
BBX 7 13 0 0
SWIDTH 538 0
DWIDTH 7 0
BITMAP
00
00
00
00
00
00
00
00
30
28
30
20
20
ENDCHAR
STARTCHAR uni209B
ENCODING 8347
BBX 7 13 0 0
SWIDTH 538 0
DWIDTH 7 0
BITMAP
00
00
00
00
00
00
00
00
18
30
18
30
00
ENDCHAR
STARTCHAR uni209C
ENCODING 8348
BBX 7 13 0 0
SWIDTH 538 0
DWIDTH 7 0
BITMAP
00
00
00
00
00
00
00
10
10
38
10
18
00
ENDCHAR
STARTCHAR minus
ENCODING 8722
BBX 7 13 0 0
SWIDTH 538 0
DWIDTH 7 0
BITMAP
00
00
00
00
00
00
7C
00
00
00
00
00
00
ENDCHAR
STARTCHAR SF100000
ENCODING 9472
BBX 7 13 0 0
SWIDTH 538 0
DWIDTH 7 0
BITMAP
00
00
00
00
00
00
FE
00
00
00
00
00
00
ENDCHAR
STARTCHAR uni2501
ENCODING 9473
BBX 7 13 0 0
SWIDTH 538 0
DWIDTH 7 0
BITMAP
00
00
00
00
00
FE
FE
FE
00
00
00
00
00
ENDCHAR
STARTCHAR SF110000
ENCODING 9474
BBX 7 13 0 0
SWIDTH 538 0
DWIDTH 7 0
BITMAP
10
10
10
10
10
10
10
10
10
10
10
10
10
ENDCHAR
STARTCHAR uni2503
ENCODING 9475
BBX 7 13 0 0
SWIDTH 538 0
DWIDTH 7 0
BITMAP
38
38
38
38
38
38
38
38
38
38
38
38
38
ENDCHAR
STARTCHAR uni2504
ENCODING 9476
BBX 7 13 0 0
SWIDTH 538 0
DWIDTH 7 0
BITMAP
00
00
00
00
00
00
54
00
00
00
00
00
00
ENDCHAR
STARTCHAR uni2505
ENCODING 9477
BBX 7 13 0 0
SWIDTH 538 0
DWIDTH 7 0
BITMAP
00
00
00
00
00
54
54
54
00
00
00
00
00
ENDCHAR
STARTCHAR uni2506
ENCODING 9478
BBX 7 13 0 0
SWIDTH 538 0
DWIDTH 7 0
BITMAP
00
10
10
10
00
10
10
10
00
10
10
10
00
ENDCHAR
STARTCHAR uni2507
ENCODING 9479
BBX 7 13 0 0
SWIDTH 538 0
DWIDTH 7 0
BITMAP
00
38
38
38
00
38
38
38
00
38
38
38
00
ENDCHAR
STARTCHAR uni2508
ENCODING 9480
BBX 7 13 0 0
SWIDTH 538 0
DWIDTH 7 0
BITMAP
00
00
00
00
00
00
AA
00
00
00
00
00
00
ENDCHAR
STARTCHAR uni2509
ENCODING 9481
BBX 7 13 0 0
SWIDTH 538 0
DWIDTH 7 0
BITMAP
00
00
00
00
00
AA
AA
AA
00
00
00
00
00
ENDCHAR
STARTCHAR uni250A
ENCODING 9482
BBX 7 13 0 0
SWIDTH 538 0
DWIDTH 7 0
BITMAP
00
10
10
00
10
10
00
10
10
00
10
10
00
ENDCHAR
STARTCHAR uni250B
ENCODING 9483
BBX 7 13 0 0
SWIDTH 538 0
DWIDTH 7 0
BITMAP
00
38
38
00
38
38
00
38
38
00
38
38
00
ENDCHAR
STARTCHAR SF010000
ENCODING 9484
BBX 7 13 0 0
SWIDTH 538 0
DWIDTH 7 0
BITMAP
00
00
00
00
00
00
1E
10
10
10
10
10
10
ENDCHAR
STARTCHAR uni250D
ENCODING 9485
BBX 7 13 0 0
SWIDTH 538 0
DWIDTH 7 0
BITMAP
00
00
00
00
00
1E
1E
1E
10
10
10
10
10
ENDCHAR
STARTCHAR uni250E
ENCODING 9486
BBX 7 13 0 0
SWIDTH 538 0
DWIDTH 7 0
BITMAP
00
00
00
00
00
00
3E
38
38
38
38
38
38
ENDCHAR
STARTCHAR uni250F
ENCODING 9487
BBX 7 13 0 0
SWIDTH 538 0
DWIDTH 7 0
BITMAP
00
00
00
00
00
3E
3E
3E
38
38
38
38
38
ENDCHAR
STARTCHAR SF030000
ENCODING 9488
BBX 7 13 0 0
SWIDTH 538 0
DWIDTH 7 0
BITMAP
00
00
00
00
00
00
F0
10
10
10
10
10
10
ENDCHAR
STARTCHAR uni2511
ENCODING 9489
BBX 7 13 0 0
SWIDTH 538 0
DWIDTH 7 0
BITMAP
00
00
00
00
00
F0
F0
F0
10
10
10
10
10
ENDCHAR
STARTCHAR uni2512
ENCODING 9490
BBX 7 13 0 0
SWIDTH 538 0
DWIDTH 7 0
BITMAP
00
00
00
00
00
00
F8
38
38
38
38
38
38
ENDCHAR
STARTCHAR uni2513
ENCODING 9491
BBX 7 13 0 0
SWIDTH 538 0
DWIDTH 7 0
BITMAP
00
00
00
00
00
F8
F8
F8
38
38
38
38
38
ENDCHAR
STARTCHAR SF020000
ENCODING 9492
BBX 7 13 0 0
SWIDTH 538 0
DWIDTH 7 0
BITMAP
10
10
10
10
10
10
1E
00
00
00
00
00
00
ENDCHAR
STARTCHAR uni2515
ENCODING 9493
BBX 7 13 0 0
SWIDTH 538 0
DWIDTH 7 0
BITMAP
10
10
10
10
10
1E
1E
1E
00
00
00
00
00
ENDCHAR
STARTCHAR uni2516
ENCODING 9494
BBX 7 13 0 0
SWIDTH 538 0
DWIDTH 7 0
BITMAP
38
38
38
38
38
38
3E
00
00
00
00
00
00
ENDCHAR
STARTCHAR uni2517
ENCODING 9495
BBX 7 13 0 0
SWIDTH 538 0
DWIDTH 7 0
BITMAP
38
38
38
38
38
3E
3E
3E
00
00
00
00
00
ENDCHAR
STARTCHAR SF040000
ENCODING 9496
BBX 7 13 0 0
SWIDTH 538 0
DWIDTH 7 0
BITMAP
10
10
10
10
10
10
F0
00
00
00
00
00
00
ENDCHAR
STARTCHAR uni2519
ENCODING 9497
BBX 7 13 0 0
SWIDTH 538 0
DWIDTH 7 0
BITMAP
10
10
10
10
10
F0
F0
F0
00
00
00
00
00
ENDCHAR
STARTCHAR uni251A
ENCODING 9498
BBX 7 13 0 0
SWIDTH 538 0
DWIDTH 7 0
BITMAP
38
38
38
38
38
38
F8
00
00
00
00
00
00
ENDCHAR
STARTCHAR uni251B
ENCODING 9499
BBX 7 13 0 0
SWIDTH 538 0
DWIDTH 7 0
BITMAP
38
38
38
38
38
F8
F8
F8
00
00
00
00
00
ENDCHAR
STARTCHAR SF080000
ENCODING 9500
BBX 7 13 0 0
SWIDTH 538 0
DWIDTH 7 0
BITMAP
10
10
10
10
10
10
1E
10
10
10
10
10
10
ENDCHAR
STARTCHAR uni251D
ENCODING 9501
BBX 7 13 0 0
SWIDTH 538 0
DWIDTH 7 0
BITMAP
10
10
10
10
10
1E
1E
1E
10
10
10
10
10
ENDCHAR
STARTCHAR uni251E
ENCODING 9502
BBX 7 13 0 0
SWIDTH 538 0
DWIDTH 7 0
BITMAP
38
38
38
38
38
38
3E
10
10
10
10
10
10
ENDCHAR
STARTCHAR uni251F
ENCODING 9503
BBX 7 13 0 0
SWIDTH 538 0
DWIDTH 7 0
BITMAP
10
10
10
10
10
10
3E
38
38
38
38
38
38
ENDCHAR
STARTCHAR uni2520
ENCODING 9504
BBX 7 13 0 0
SWIDTH 538 0
DWIDTH 7 0
BITMAP
38
38
38
38
38
38
3E
38
38
38
38
38
38
ENDCHAR
STARTCHAR uni2521
ENCODING 9505
BBX 7 13 0 0
SWIDTH 538 0
DWIDTH 7 0
BITMAP
38
38
38
38
38
3E
3E
3E
10
10
10
10
10
ENDCHAR
STARTCHAR uni2522
ENCODING 9506
BBX 7 13 0 0
SWIDTH 538 0
DWIDTH 7 0
BITMAP
10
10
10
10
10
3E
3E
3E
38
38
38
38
38
ENDCHAR
STARTCHAR uni2523
ENCODING 9507
BBX 7 13 0 0
SWIDTH 538 0
DWIDTH 7 0
BITMAP
38
38
38
38
38
3E
3E
3E
38
38
38
38
38
ENDCHAR
STARTCHAR SF090000
ENCODING 9508
BBX 7 13 0 0
SWIDTH 538 0
DWIDTH 7 0
BITMAP
10
10
10
10
10
10
F0
10
10
10
10
10
10
ENDCHAR
STARTCHAR uni2525
ENCODING 9509
BBX 7 13 0 0
SWIDTH 538 0
DWIDTH 7 0
BITMAP
10
10
10
10
10
F0
F0
F0
10
10
10
10
10
ENDCHAR
STARTCHAR uni2526
ENCODING 9510
BBX 7 13 0 0
SWIDTH 538 0
DWIDTH 7 0
BITMAP
38
38
38
38
38
38
F8
10
10
10
10
10
10
ENDCHAR
STARTCHAR uni2527
ENCODING 9511
BBX 7 13 0 0
SWIDTH 538 0
DWIDTH 7 0
BITMAP
10
10
10
10
10
10
F8
38
38
38
38
38
38
ENDCHAR
STARTCHAR uni2528
ENCODING 9512
BBX 7 13 0 0
SWIDTH 538 0
DWIDTH 7 0
BITMAP
38
38
38
38
38
38
F8
38
38
38
38
38
38
ENDCHAR
STARTCHAR uni2529
ENCODING 9513
BBX 7 13 0 0
SWIDTH 538 0
DWIDTH 7 0
BITMAP
38
38
38
38
38
F8
F8
F8
10
10
10
10
10
ENDCHAR
STARTCHAR uni252A
ENCODING 9514
BBX 7 13 0 0
SWIDTH 538 0
DWIDTH 7 0
BITMAP
10
10
10
10
10
F8
F8
F8
38
38
38
38
38
ENDCHAR
STARTCHAR uni252B
ENCODING 9515
BBX 7 13 0 0
SWIDTH 538 0
DWIDTH 7 0
BITMAP
38
38
38
38
38
F8
F8
F8
38
38
38
38
38
ENDCHAR
STARTCHAR SF060000
ENCODING 9516
BBX 7 13 0 0
SWIDTH 538 0
DWIDTH 7 0
BITMAP
00
00
00
00
00
00
FE
10
10
10
10
10
10
ENDCHAR
STARTCHAR uni252D
ENCODING 9517
BBX 7 13 0 0
SWIDTH 538 0
DWIDTH 7 0
BITMAP
00
00
00
00
00
F0
FE
F0
10
10
10
10
10
ENDCHAR
STARTCHAR uni252E
ENCODING 9518
BBX 7 13 0 0
SWIDTH 538 0
DWIDTH 7 0
BITMAP
00
00
00
00
00
1E
FE
1E
10
10
10
10
10
ENDCHAR
STARTCHAR uni252F
ENCODING 9519
BBX 7 13 0 0
SWIDTH 538 0
DWIDTH 7 0
BITMAP
00
00
00
00
00
FE
FE
FE
10
10
10
10
10
ENDCHAR
STARTCHAR uni2530
ENCODING 9520
BBX 7 13 0 0
SWIDTH 538 0
DWIDTH 7 0
BITMAP
00
00
00
00
00
00
FE
38
38
38
38
38
38
ENDCHAR
STARTCHAR uni2531
ENCODING 9521
BBX 7 13 0 0
SWIDTH 538 0
DWIDTH 7 0
BITMAP
00
00
00
00
00
F8
FE
F8
38
38
38
38
38
ENDCHAR
STARTCHAR uni2532
ENCODING 9522
BBX 7 13 0 0
SWIDTH 538 0
DWIDTH 7 0
BITMAP
00
00
00
00
00
3E
FE
3E
38
38
38
38
38
ENDCHAR
STARTCHAR uni2533
ENCODING 9523
BBX 7 13 0 0
SWIDTH 538 0
DWIDTH 7 0
BITMAP
00
00
00
00
00
FE
FE
FE
38
38
38
38
38
ENDCHAR
STARTCHAR SF070000
ENCODING 9524
BBX 7 13 0 0
SWIDTH 538 0
DWIDTH 7 0
BITMAP
10
10
10
10
10
10
FE
00
00
00
00
00
00
ENDCHAR
STARTCHAR uni2535
ENCODING 9525
BBX 7 13 0 0
SWIDTH 538 0
DWIDTH 7 0
BITMAP
10
10
10
10
10
F0
FE
F0
00
00
00
00
00
ENDCHAR
STARTCHAR uni2536
ENCODING 9526
BBX 7 13 0 0
SWIDTH 538 0
DWIDTH 7 0
BITMAP
10
10
10
10
10
1E
FE
1E
00
00
00
00
00
ENDCHAR
STARTCHAR uni2537
ENCODING 9527
BBX 7 13 0 0
SWIDTH 538 0
DWIDTH 7 0
BITMAP
10
10
10
10
10
FE
FE
FE
00
00
00
00
00
ENDCHAR
STARTCHAR uni2538
ENCODING 9528
BBX 7 13 0 0
SWIDTH 538 0
DWIDTH 7 0
BITMAP
38
38
38
38
38
38
FE
00
00
00
00
00
00
ENDCHAR
STARTCHAR uni2539
ENCODING 9529
BBX 7 13 0 0
SWIDTH 538 0
DWIDTH 7 0
BITMAP
38
38
38
38
38
F8
FE
F8
00
00
00
00
00
ENDCHAR
STARTCHAR uni253A
ENCODING 9530
BBX 7 13 0 0
SWIDTH 538 0
DWIDTH 7 0
BITMAP
38
38
38
38
38
3E
FE
3E
00
00
00
00
00
ENDCHAR
STARTCHAR uni253B
ENCODING 9531
BBX 7 13 0 0
SWIDTH 538 0
DWIDTH 7 0
BITMAP
38
38
38
38
38
FE
FE
FE
00
00
00
00
00
ENDCHAR
STARTCHAR SF050000
ENCODING 9532
BBX 7 13 0 0
SWIDTH 538 0
DWIDTH 7 0
BITMAP
10
10
10
10
10
10
FE
10
10
10
10
10
10
ENDCHAR
STARTCHAR uni253D
ENCODING 9533
BBX 7 13 0 0
SWIDTH 538 0
DWIDTH 7 0
BITMAP
10
10
10
10
10
F0
FE
F0
10
10
10
10
10
ENDCHAR
STARTCHAR uni253E
ENCODING 9534
BBX 7 13 0 0
SWIDTH 538 0
DWIDTH 7 0
BITMAP
10
10
10
10
10
1E
FE
1E
10
10
10
10
10
ENDCHAR
STARTCHAR uni253F
ENCODING 9535
BBX 7 13 0 0
SWIDTH 538 0
DWIDTH 7 0
BITMAP
10
10
10
10
10
FE
FE
FE
10
10
10
10
10
ENDCHAR
STARTCHAR uni2540
ENCODING 9536
BBX 7 13 0 0
SWIDTH 538 0
DWIDTH 7 0
BITMAP
38
38
38
38
38
38
FE
10
10
10
10
10
10
ENDCHAR
STARTCHAR uni2541
ENCODING 9537
BBX 7 13 0 0
SWIDTH 538 0
DWIDTH 7 0
BITMAP
10
10
10
10
10
10
FE
38
38
38
38
38
38
ENDCHAR
STARTCHAR uni2542
ENCODING 9538
BBX 7 13 0 0
SWIDTH 538 0
DWIDTH 7 0
BITMAP
38
38
38
38
38
38
FE
38
38
38
38
38
38
ENDCHAR
STARTCHAR uni2543
ENCODING 9539
BBX 7 13 0 0
SWIDTH 538 0
DWIDTH 7 0
BITMAP
38
38
38
38
38
F8
FE
F8
10
10
10
10
10
ENDCHAR
STARTCHAR uni2544
ENCODING 9540
BBX 7 13 0 0
SWIDTH 538 0
DWIDTH 7 0
BITMAP
38
38
38
38
38
3E
FE
3E
10
10
10
10
10
ENDCHAR
STARTCHAR uni2545
ENCODING 9541
BBX 7 13 0 0
SWIDTH 538 0
DWIDTH 7 0
BITMAP
10
10
10
10
10
F8
FE
F8
38
38
38
38
38
ENDCHAR
STARTCHAR uni2546
ENCODING 9542
BBX 7 13 0 0
SWIDTH 538 0
DWIDTH 7 0
BITMAP
10
10
10
10
10
3E
FE
3E
38
38
38
38
38
ENDCHAR
STARTCHAR uni2547
ENCODING 9543
BBX 7 13 0 0
SWIDTH 538 0
DWIDTH 7 0
BITMAP
38
38
38
38
38
FE
FE
FE
10
10
10
10
10
ENDCHAR
STARTCHAR uni2548
ENCODING 9544
BBX 7 13 0 0
SWIDTH 538 0
DWIDTH 7 0
BITMAP
10
10
10
10
10
FE
FE
FE
38
38
38
38
38
ENDCHAR
STARTCHAR uni2549
ENCODING 9545
BBX 7 13 0 0
SWIDTH 538 0
DWIDTH 7 0
BITMAP
38
38
38
38
38
F8
FE
F8
38
38
38
38
38
ENDCHAR
STARTCHAR uni254A
ENCODING 9546
BBX 7 13 0 0
SWIDTH 538 0
DWIDTH 7 0
BITMAP
38
38
38
38
38
3E
FE
3E
38
38
38
38
38
ENDCHAR
STARTCHAR uni254B
ENCODING 9547
BBX 7 13 0 0
SWIDTH 538 0
DWIDTH 7 0
BITMAP
38
38
38
38
38
FE
FE
FE
38
38
38
38
38
ENDCHAR
STARTCHAR uni254C
ENCODING 9548
BBX 7 13 0 0
SWIDTH 538 0
DWIDTH 7 0
BITMAP
00
00
00
00
00
00
6C
00
00
00
00
00
00
ENDCHAR
STARTCHAR uni254D
ENCODING 9549
BBX 7 13 0 0
SWIDTH 538 0
DWIDTH 7 0
BITMAP
00
00
00
00
00
6C
6C
6C
00
00
00
00
00
ENDCHAR
STARTCHAR uni254E
ENCODING 9550
BBX 7 13 0 0
SWIDTH 538 0
DWIDTH 7 0
BITMAP
00
10
10
10
10
10
00
10
10
10
10
10
00
ENDCHAR
STARTCHAR uni254F
ENCODING 9551
BBX 7 13 0 0
SWIDTH 538 0
DWIDTH 7 0
BITMAP
00
38
38
38
38
38
00
38
38
38
38
38
00
ENDCHAR
STARTCHAR SF430000
ENCODING 9552
BBX 7 13 0 0
SWIDTH 538 0
DWIDTH 7 0
BITMAP
00
00
00
00
00
FE
00
FE
00
00
00
00
00
ENDCHAR
STARTCHAR SF240000
ENCODING 9553
BBX 7 13 0 0
SWIDTH 538 0
DWIDTH 7 0
BITMAP
28
28
28
28
28
28
28
28
28
28
28
28
28
ENDCHAR
STARTCHAR SF510000
ENCODING 9554
BBX 7 13 0 0
SWIDTH 538 0
DWIDTH 7 0
BITMAP
00
00
00
00
00
1E
10
1E
10
10
10
10
10
ENDCHAR
STARTCHAR SF520000
ENCODING 9555
BBX 7 13 0 0
SWIDTH 538 0
DWIDTH 7 0
BITMAP
00
00
00
00
00
00
3E
28
28
28
28
28
28
ENDCHAR
STARTCHAR SF390000
ENCODING 9556
BBX 7 13 0 0
SWIDTH 538 0
DWIDTH 7 0
BITMAP
00
00
00
00
00
3E
20
2E
28
28
28
28
28
ENDCHAR
STARTCHAR SF220000
ENCODING 9557
BBX 7 13 0 0
SWIDTH 538 0
DWIDTH 7 0
BITMAP
00
00
00
00
00
F0
10
F0
10
10
10
10
10
ENDCHAR
STARTCHAR SF210000
ENCODING 9558
BBX 7 13 0 0
SWIDTH 538 0
DWIDTH 7 0
BITMAP
00
00
00
00
00
00
F8
28
28
28
28
28
28
ENDCHAR
STARTCHAR SF250000
ENCODING 9559
BBX 7 13 0 0
SWIDTH 538 0
DWIDTH 7 0
BITMAP
00
00
00
00
00
F8
08
E8
28
28
28
28
28
ENDCHAR
STARTCHAR SF500000
ENCODING 9560
BBX 7 13 0 0
SWIDTH 538 0
DWIDTH 7 0
BITMAP
10
10
10
10
10
1E
10
1E
00
00
00
00
00
ENDCHAR
STARTCHAR SF490000
ENCODING 9561
BBX 7 13 0 0
SWIDTH 538 0
DWIDTH 7 0
BITMAP
28
28
28
28
28
28
3E
00
00
00
00
00
00
ENDCHAR
STARTCHAR SF380000
ENCODING 9562
BBX 7 13 0 0
SWIDTH 538 0
DWIDTH 7 0
BITMAP
28
28
28
28
28
2E
20
3E
00
00
00
00
00
ENDCHAR
STARTCHAR SF280000
ENCODING 9563
BBX 7 13 0 0
SWIDTH 538 0
DWIDTH 7 0
BITMAP
10
10
10
10
10
F0
10
F0
00
00
00
00
00
ENDCHAR
STARTCHAR SF270000
ENCODING 9564
BBX 7 13 0 0
SWIDTH 538 0
DWIDTH 7 0
BITMAP
28
28
28
28
28
28
F8
00
00
00
00
00
00
ENDCHAR
STARTCHAR SF260000
ENCODING 9565
BBX 7 13 0 0
SWIDTH 538 0
DWIDTH 7 0
BITMAP
28
28
28
28
28
E8
08
F8
00
00
00
00
00
ENDCHAR
STARTCHAR SF360000
ENCODING 9566
BBX 7 13 0 0
SWIDTH 538 0
DWIDTH 7 0
BITMAP
10
10
10
10
10
1E
10
1E
10
10
10
10
10
ENDCHAR
STARTCHAR SF370000
ENCODING 9567
BBX 7 13 0 0
SWIDTH 538 0
DWIDTH 7 0
BITMAP
28
28
28
28
28
28
2E
28
28
28
28
28
28
ENDCHAR
STARTCHAR SF420000
ENCODING 9568
BBX 7 13 0 0
SWIDTH 538 0
DWIDTH 7 0
BITMAP
28
28
28
28
28
2E
20
2E
28
28
28
28
28
ENDCHAR
STARTCHAR SF190000
ENCODING 9569
BBX 7 13 0 0
SWIDTH 538 0
DWIDTH 7 0
BITMAP
10
10
10
10
10
F0
10
F0
10
10
10
10
10
ENDCHAR
STARTCHAR SF200000
ENCODING 9570
BBX 7 13 0 0
SWIDTH 538 0
DWIDTH 7 0
BITMAP
28
28
28
28
28
28
E8
28
28
28
28
28
28
ENDCHAR
STARTCHAR SF230000
ENCODING 9571
BBX 7 13 0 0
SWIDTH 538 0
DWIDTH 7 0
BITMAP
28
28
28
28
28
E8
08
E8
28
28
28
28
28
ENDCHAR
STARTCHAR SF470000
ENCODING 9572
BBX 7 13 0 0
SWIDTH 538 0
DWIDTH 7 0
BITMAP
00
00
00
00
00
FE
00
FE
10
10
10
10
10
ENDCHAR
STARTCHAR SF480000
ENCODING 9573
BBX 7 13 0 0
SWIDTH 538 0
DWIDTH 7 0
BITMAP
00
00
00
00
00
00
FE
28
28
28
28
28
28
ENDCHAR
STARTCHAR SF410000
ENCODING 9574
BBX 7 13 0 0
SWIDTH 538 0
DWIDTH 7 0
BITMAP
00
00
00
00
00
FE
00
EE
28
28
28
28
28
ENDCHAR
STARTCHAR SF450000
ENCODING 9575
BBX 7 13 0 0
SWIDTH 538 0
DWIDTH 7 0
BITMAP
10
10
10
10
10
FE
00
FE
00
00
00
00
00
ENDCHAR
STARTCHAR SF460000
ENCODING 9576
BBX 7 13 0 0
SWIDTH 538 0
DWIDTH 7 0
BITMAP
28
28
28
28
28
28
FE
00
00
00
00
00
00
ENDCHAR
STARTCHAR SF400000
ENCODING 9577
BBX 7 13 0 0
SWIDTH 538 0
DWIDTH 7 0
BITMAP
28
28
28
28
28
EE
00
FE
00
00
00
00
00
ENDCHAR
STARTCHAR SF540000
ENCODING 9578
BBX 7 13 0 0
SWIDTH 538 0
DWIDTH 7 0
BITMAP
10
10
10
10
10
FE
00
FE
10
10
10
10
10
ENDCHAR
STARTCHAR SF530000
ENCODING 9579
BBX 7 13 0 0
SWIDTH 538 0
DWIDTH 7 0
BITMAP
28
28
28
28
28
28
EE
28
28
28
28
28
28
ENDCHAR
STARTCHAR SF440000
ENCODING 9580
BBX 7 13 0 0
SWIDTH 538 0
DWIDTH 7 0
BITMAP
28
28
28
28
28
EE
00
EE
28
28
28
28
28
ENDCHAR
STARTCHAR uni256D
ENCODING 9581
BBX 7 13 0 0
SWIDTH 538 0
DWIDTH 7 0
BITMAP
00
00
00
00
00
00
06
08
10
10
10
10
10
ENDCHAR
STARTCHAR uni256E
ENCODING 9582
BBX 7 13 0 0
SWIDTH 538 0
DWIDTH 7 0
BITMAP
00
00
00
00
00
00
C0
20
10
10
10
10
10
ENDCHAR
STARTCHAR uni256F
ENCODING 9583
BBX 7 13 0 0
SWIDTH 538 0
DWIDTH 7 0
BITMAP
10
10
10
10
10
20
C0
00
00
00
00
00
00
ENDCHAR
STARTCHAR uni2570
ENCODING 9584
BBX 7 13 0 0
SWIDTH 538 0
DWIDTH 7 0
BITMAP
10
10
10
10
10
08
06
00
00
00
00
00
00
ENDCHAR
STARTCHAR uni2571
ENCODING 9585
BBX 7 13 0 0
SWIDTH 538 0
DWIDTH 7 0
BITMAP
02
02
04
04
08
08
10
20
20
40
40
80
80
ENDCHAR
STARTCHAR uni2572
ENCODING 9586
BBX 7 13 0 0
SWIDTH 538 0
DWIDTH 7 0
BITMAP
80
80
40
40
20
20
10
08
08
04
04
02
02
ENDCHAR
STARTCHAR uni2573
ENCODING 9587
BBX 7 13 0 0
SWIDTH 538 0
DWIDTH 7 0
BITMAP
82
82
44
44
28
28
10
28
28
44
44
82
82
ENDCHAR
STARTCHAR uni2574
ENCODING 9588
BBX 7 13 0 0
SWIDTH 538 0
DWIDTH 7 0
BITMAP
00
00
00
00
00
00
F0
00
00
00
00
00
00
ENDCHAR
STARTCHAR uni2575
ENCODING 9589
BBX 7 13 0 0
SWIDTH 538 0
DWIDTH 7 0
BITMAP
10
10
10
10
10
10
10
00
00
00
00
00
00
ENDCHAR
STARTCHAR uni2576
ENCODING 9590
BBX 7 13 0 0
SWIDTH 538 0
DWIDTH 7 0
BITMAP
00
00
00
00
00
00
1E
00
00
00
00
00
00
ENDCHAR
STARTCHAR uni2577
ENCODING 9591
BBX 7 13 0 0
SWIDTH 538 0
DWIDTH 7 0
BITMAP
00
00
00
00
00
00
10
10
10
10
10
10
10
ENDCHAR
STARTCHAR uni2578
ENCODING 9592
BBX 7 13 0 0
SWIDTH 538 0
DWIDTH 7 0
BITMAP
00
00
00
00
00
F0
F0
F0
00
00
00
00
00
ENDCHAR
STARTCHAR uni2579
ENCODING 9593
BBX 7 13 0 0
SWIDTH 538 0
DWIDTH 7 0
BITMAP
38
38
38
38
38
38
38
00
00
00
00
00
00
ENDCHAR
STARTCHAR uni257A
ENCODING 9594
BBX 7 13 0 0
SWIDTH 538 0
DWIDTH 7 0
BITMAP
00
00
00
00
00
1E
1E
1E
00
00
00
00
00
ENDCHAR
STARTCHAR uni257B
ENCODING 9595
BBX 7 13 0 0
SWIDTH 538 0
DWIDTH 7 0
BITMAP
00
00
00
00
00
00
38
38
38
38
38
38
38
ENDCHAR
STARTCHAR uni257C
ENCODING 9596
BBX 7 13 0 0
SWIDTH 538 0
DWIDTH 7 0
BITMAP
00
00
00
00
00
1E
FE
1E
00
00
00
00
00
ENDCHAR
STARTCHAR uni257D
ENCODING 9597
BBX 7 13 0 0
SWIDTH 538 0
DWIDTH 7 0
BITMAP
10
10
10
10
10
10
38
38
38
38
38
38
38
ENDCHAR
STARTCHAR uni257E
ENCODING 9598
BBX 7 13 0 0
SWIDTH 538 0
DWIDTH 7 0
BITMAP
00
00
00
00
00
F0
FE
F0
00
00
00
00
00
ENDCHAR
STARTCHAR uni257F
ENCODING 9599
BBX 7 13 0 0
SWIDTH 538 0
DWIDTH 7 0
BITMAP
38
38
38
38
38
38
38
10
10
10
10
10
10
ENDCHAR
STARTCHAR Euro
ENCODING 8364
BBX 7 13 0 0
SWIDTH 538 0
DWIDTH 7 0
BITMAP
00
00
1C
20
20
78
20
78
20
20
1C
00
00
ENDCHAR
STARTCHAR uni2120
ENCODING 8480
BBX 7 13 0 0
SWIDTH 538 0
DWIDTH 7 0
BITMAP
00
74
9C
5C
34
D4
00
00
00
00
00
00
00
ENDCHAR
STARTCHAR trademark
ENCODING 8482
BBX 7 13 0 0
SWIDTH 538 0
DWIDTH 7 0
BITMAP
00
F4
5C
5C
54
54
00
00
00
00
00
00
00
ENDCHAR
STARTCHAR Omega
ENCODING 8486
BBX 7 13 0 0
SWIDTH 538 0
DWIDTH 7 0
BITMAP
00
00
38
44
44
44
44
44
28
28
6C
00
00
ENDCHAR
STARTCHAR arrowleft
ENCODING 8592
BBX 7 13 0 0
SWIDTH 538 0
DWIDTH 7 0
BITMAP
00
00
00
10
20
7C
20
10
00
00
00
00
00
ENDCHAR
STARTCHAR arrowup
ENCODING 8593
BBX 7 13 0 0
SWIDTH 538 0
DWIDTH 7 0
BITMAP
00
00
10
38
54
10
10
10
10
10
10
00
00
ENDCHAR
STARTCHAR arrowright
ENCODING 8594
BBX 7 13 0 0
SWIDTH 538 0
DWIDTH 7 0
BITMAP
00
00
00
10
08
7C
08
10
00
00
00
00
00
ENDCHAR
STARTCHAR arrowdown
ENCODING 8595
BBX 7 13 0 0
SWIDTH 538 0
DWIDTH 7 0
BITMAP
00
00
10
10
10
10
10
10
54
38
10
00
00
ENDCHAR
STARTCHAR arrowboth
ENCODING 8596
BBX 7 13 0 0
SWIDTH 538 0
DWIDTH 7 0
BITMAP
00
00
00
00
00
48
FC
48
00
00
00
00
00
ENDCHAR
STARTCHAR arrowupdn
ENCODING 8597
BBX 7 13 0 0
SWIDTH 538 0
DWIDTH 7 0
BITMAP
00
00
10
38
54
10
10
10
54
38
10
00
00
ENDCHAR
STARTCHAR universal
ENCODING 8704
BBX 7 13 0 0
SWIDTH 538 0
DWIDTH 7 0
BITMAP
00
00
00
44
7C
44
28
28
10
10
00
00
00
ENDCHAR
STARTCHAR existential
ENCODING 8707
BBX 7 13 0 0
SWIDTH 538 0
DWIDTH 7 0
BITMAP
00
00
00
7C
04
04
3C
04
04
7C
00
00
00
ENDCHAR
STARTCHAR uni2204
ENCODING 8708
BBX 7 13 0 0
SWIDTH 538 0
DWIDTH 7 0
BITMAP
00
00
08
7C
0C
14
3C
14
24
7C
20
00
00
ENDCHAR
STARTCHAR emptyset
ENCODING 8709
BBX 7 13 0 0
SWIDTH 538 0
DWIDTH 7 0
BITMAP
00
00
00
34
48
94
B4
A4
48
B0
00
00
00
ENDCHAR
STARTCHAR element
ENCODING 8712
BBX 7 13 0 0
SWIDTH 538 0
DWIDTH 7 0
BITMAP
00
00
00
00
3C
40
7C
40
3C
00
00
00
00
ENDCHAR
STARTCHAR notelement
ENCODING 8713
BBX 7 13 0 0
SWIDTH 538 0
DWIDTH 7 0
BITMAP
00
00
00
08
3C
48
7C
50
3C
10
00
00
00
ENDCHAR
STARTCHAR radical
ENCODING 8730
BBX 7 13 0 0
SWIDTH 538 0
DWIDTH 7 0
BITMAP
00
00
00
0C
08
08
10
10
10
E0
20
00
00
ENDCHAR
STARTCHAR infinity
ENCODING 8734
BBX 7 13 0 0
SWIDTH 538 0
DWIDTH 7 0
BITMAP
00
00
00
00
00
28
54
28
00
00
00
00
00
ENDCHAR
STARTCHAR logicaland
ENCODING 8743
BBX 7 13 0 0
SWIDTH 538 0
DWIDTH 7 0
BITMAP
00
00
00
00
10
28
28
44
44
00
00
00
00
ENDCHAR
STARTCHAR logicalor
ENCODING 8744
BBX 7 13 0 0
SWIDTH 538 0
DWIDTH 7 0
BITMAP
00
00
00
00
44
44
28
28
10
00
00
00
00
ENDCHAR
STARTCHAR intersection
ENCODING 8745
BBX 7 13 0 0
SWIDTH 538 0
DWIDTH 7 0
BITMAP
00
00
00
00
38
44
44
44
44
00
00
00
00
ENDCHAR
STARTCHAR union
ENCODING 8746
BBX 7 13 0 0
SWIDTH 538 0
DWIDTH 7 0
BITMAP
00
00
00
00
44
44
44
44
38
00
00
00
00
ENDCHAR
STARTCHAR uniFFFD
ENCODING 65533
BBX 7 13 0 0
SWIDTH 538 0
DWIDTH 7 0
BITMAP
00
00
10
38
4C
74
6C
7C
6C
38
10
00
00
ENDCHAR
ENDFONT
